<?xml version="1.0" standalone="no"?>
<!DOCTYPE svg PUBLIC "-//W3C//DTD SVG 1.1//EN" "http://www.w3.org/Graphics/SVG/1.1/DTD/svg11.dtd" >
<svg xmlns="http://www.w3.org/2000/svg">
<metadata>Generated by IcoMoon</metadata>
<defs>
<font id="icomoon" horiz-adv-x="1024">
<font-face units-per-em="1024" ascent="960" descent="-64" />
<missing-glyph horiz-adv-x="1024" />
<glyph unicode="&#x20;" horiz-adv-x="512" d="" />
<glyph unicode="&#xe900;" glyph-name="Alignment" d="M961.331 469.197l-99.533 104.96c-11.674 12.288-31.13 12.8-43.418 1.126s-12.8-31.13-1.126-43.418l50.278-53.146h-324.813v295.322l53.146-50.381c5.939-5.632 13.517-8.397 21.094-8.397 8.090 0 16.282 3.174 22.323 9.626 11.674 12.288 11.162 31.744-1.126 43.418l-105.062 99.533c-11.878 11.264-30.413 11.264-42.291 0l-104.96-99.533c-12.288-11.674-12.8-31.13-1.126-43.418s31.13-12.8 43.418-1.126l53.146 50.278v-295.322h-316.314l50.79 53.555c11.674 12.288 11.162 31.744-1.126 43.418s-31.744 11.162-43.418-1.126l-99.533-104.96c-11.264-11.878-11.264-30.413 0-42.291l99.533-104.96c6.042-6.349 14.131-9.626 22.323-9.626 7.578 0 15.155 2.765 21.094 8.397 12.288 11.674 12.8 31.13 1.126 43.418l-49.869 52.736h315.392v-295.219l-53.146 50.381c-12.288 11.674-31.744 11.162-43.418-1.126s-11.162-31.744 1.126-43.418l104.96-99.533c5.939-5.632 13.517-8.397 21.094-8.397s15.258 2.765 21.094 8.397l104.96 99.533c12.288 11.674 12.8 31.13 1.126 43.418s-31.13 12.8-43.418 1.126l-52.941-50.483v295.322h324.813l-50.278-53.043c-11.674-12.288-11.162-31.744 1.126-43.418 5.939-5.632 13.517-8.397 21.094-8.397 8.090 0 16.282 3.174 22.323 9.626l99.533 104.96c11.264 11.776 11.264 30.31 0 42.189z" />
<glyph unicode="&#xe901;" glyph-name="Automated-Reporting" d="M789.299 725.709h-385.126c-16.998 0-30.72-13.722-30.72-30.72s13.722-30.72 30.72-30.72h385.229c16.998 0 30.72 13.722 30.72 30.72s-13.824 30.72-30.822 30.72zM789.299 359.014h-385.126c-16.998 0-30.72-13.722-30.72-30.72s13.722-30.72 30.72-30.72h385.229c16.998 0 30.72 13.722 30.72 30.72s-13.824 30.72-30.822 30.72zM789.299 542.31h-385.126c-16.998 0-30.72-13.722-30.72-30.72s13.722-30.72 30.72-30.72h385.229c16.998 0 30.72 13.722 30.72 30.72s-13.824 30.72-30.822 30.72zM910.643 958.771h-627.814c-61.85 0-112.128-50.278-112.128-112.128v-40.038h-51.814c-64.205 0-116.429-52.224-116.429-116.326v-635.494c0-64.205 52.224-116.326 116.429-116.326h619.213c64.205 0 116.326 52.224 116.326 116.326v35.738h56.115c61.85 0 112.128 50.278 112.128 112.128v644.096c0.102 61.747-50.176 112.026-112.026 112.026zM793.088 54.784c0-30.31-24.678-54.886-54.886-54.886h-619.213c-30.31 0-54.989 24.678-54.989 54.886v635.494c0 30.31 24.678 54.886 54.989 54.886h51.814v-544.563c0-60.723 49.459-110.182 110.182-110.182h512.205v-35.635zM961.331 202.547c0-27.955-22.733-50.688-50.688-50.688h-627.814c-27.955 0-50.688 22.733-50.688 50.688v644.096c0 27.955 22.733 50.688 50.688 50.688h627.814c27.955 0 50.688-22.733 50.688-50.688v-644.096z" />
<glyph unicode="&#xe902;" glyph-name="Best-Practices" d="M1015.91 99.84l-167.424 232.038c43.93 66.15 67.174 142.746 67.174 223.027 0 222.618-181.043 403.763-403.661 403.763s-403.661-181.146-403.661-403.661c0-79.667 22.938-155.853 66.355-221.594l-168.448-233.574c-7.475-10.342-7.782-24.269-0.717-34.918s19.866-15.872 32.358-13.107l146.637 32.563 77.824-130.253c5.53-9.318 15.565-14.95 26.317-14.95 0.614 0 1.229 0 1.946 0.102 11.469 0.717 21.606 7.782 26.214 18.33l91.136 207.36c33.587-9.011 68.608-13.619 104.141-13.619 34.714 0 69.12 4.403 102.195 13.005 0.102 0 0.205 0.102 0.41 0.102l90.931-206.95c4.608-10.547 14.746-17.613 26.214-18.33 0.614 0 1.331-0.102 1.946-0.102 10.752 0 20.787 5.632 26.317 14.95l77.926 130.253 146.534-32.563c12.493-2.765 25.293 2.458 32.358 13.107s6.451 24.678-1.024 35.021zM284.365 36.864l-58.675 98.202c-5.632 9.421-15.77 14.95-26.419 14.95-2.15 0-4.403-0.205-6.656-0.717l-89.395-19.866 110.797 153.395c0.512-0.614 1.126-1.126 1.638-1.741 1.331-1.434 2.662-2.765 3.994-4.096 4.608-4.813 9.318-9.626 14.131-14.131 1.946-1.843 3.789-3.686 5.837-5.427 4.813-4.506 9.83-8.806 14.848-13.005 1.536-1.229 3.072-2.662 4.608-3.891 6.349-5.12 12.902-10.035 19.558-14.746 2.15-1.536 4.403-2.97 6.656-4.506 4.71-3.174 9.523-6.349 14.336-9.318 2.765-1.741 5.53-3.379 8.294-5.018 5.018-2.867 10.035-5.734 15.155-8.397 2.355-1.229 4.608-2.56 6.963-3.789 6.451-3.277 13.107-6.349 19.763-9.318l-65.434-148.582zM423.526 224.358c-8.909 2.355-15.974 4.608-22.835 7.066-60.826 20.787-114.381 58.266-155.034 108.851-2.867 3.584-5.734 7.168-8.602 11.059-44.032 59.29-67.277 129.638-67.277 203.571 0 188.723 153.498 342.323 342.221 342.323s342.221-153.498 342.221-342.221c0-74.547-23.552-145.408-67.686-204.493-2.97-3.891-6.144-7.885-9.216-11.674-41.165-50.278-94.925-87.552-155.75-108.032-7.578-2.662-15.155-4.915-22.733-6.861-57.139-14.95-119.194-14.643-175.309 0.41zM829.542 149.299c-12.902 2.765-26.214-2.867-33.075-14.234l-58.778-98.202-64.922 147.866c6.758 2.97 13.414 6.042 19.968 9.318 1.229 0.614 2.355 1.229 3.482 1.843 6.349 3.277 12.698 6.758 18.842 10.342 2.15 1.331 4.403 2.56 6.554 3.891 5.53 3.379 10.957 6.861 16.282 10.445 1.741 1.229 3.584 2.355 5.325 3.584 6.861 4.813 13.722 9.83 20.275 15.155 1.229 0.922 2.355 1.946 3.482 2.867 5.427 4.403 10.752 9.011 15.974 13.722 1.946 1.741 3.891 3.584 5.734 5.325 4.71 4.403 9.318 9.011 13.824 13.619 1.536 1.638 3.174 3.174 4.608 4.813 0.614 0.614 1.229 1.229 1.741 1.843l109.875-152.269-89.19 20.070zM660.378 642.458c-11.878 12.083-31.334 12.186-43.418 0.307l-138.342-136.192-51.712 38.912c-13.619 10.24-32.768 7.475-43.008-6.042s-7.475-32.87 6.042-43.008l72.909-54.784c5.53-4.096 11.981-6.144 18.432-6.144 7.782 0 15.667 2.97 21.606 8.806l157.184 154.726c12.083 11.878 12.186 31.334 0.307 43.418z" />
<glyph unicode="&#xe903;" glyph-name="Blogs" d="M856.678 957.133h-689.459c-91.136 0-165.274-74.138-165.274-165.274v-506.982c0-91.238 74.138-165.376 165.376-165.376h369.766l178.074-168.96c0.717-0.614 1.331-1.229 2.15-1.843 10.547-8.397 23.245-12.698 36.147-12.698 8.602 0 17.408 1.946 25.6 5.939 20.275 9.83 32.973 30.003 32.973 52.531l0.102 124.928h44.646c91.238 0 165.376 74.24 165.376 165.376v506.88c-0.102 91.238-74.24 165.478-165.478 165.478zM960.614 284.877c0-57.344-46.592-103.936-103.936-103.936h-75.366c-16.998 0-30.72-13.722-30.72-30.72l-0.102-148.48-179.917 170.701c-5.734 5.427-13.312 8.397-21.197 8.397h-382.054c-57.344 0-103.936 46.592-103.936 103.936v507.085c0 57.242 46.592 103.834 103.834 103.834h689.459c57.344 0 103.936-46.592 103.936-103.936v-506.88zM685.261 666.419h-346.522c-16.998 0-30.72-13.722-30.72-30.72s13.722-30.72 30.72-30.72h346.522c16.998 0 30.72 13.722 30.72 30.72s-13.722 30.72-30.72 30.72zM685.261 451.277h-346.522c-16.998 0-30.72-13.722-30.72-30.72s13.722-30.72 30.72-30.72h346.522c16.998 0 30.72 13.722 30.72 30.72s-13.722 30.72-30.72 30.72z" />
<glyph unicode="&#xe904;" glyph-name="Business-Alignment" d="M1016.218 469.197l-120.422 126.874c-11.674 12.288-31.13 12.8-43.418 1.126s-12.8-31.13-1.126-43.418l71.168-75.059h-379.699v378.675l75.059-71.168c5.939-5.632 13.517-8.397 21.094-8.397 8.090 0 16.282 3.174 22.323 9.626 11.674 12.288 11.162 31.744-1.126 43.418l-126.976 120.218c-11.878 11.264-30.413 11.264-42.291 0l-126.874-120.32c-12.288-11.674-12.8-31.13-1.126-43.418s31.13-12.8 43.418-1.126l75.059 71.168v-378.675h-380.314l71.782 75.674c11.674 12.288 11.162 31.744-1.126 43.418s-31.744 11.162-43.418-1.126l-120.422-126.976c-11.264-11.878-11.264-30.413 0-42.291l120.422-126.874c6.042-6.349 14.131-9.626 22.323-9.626 7.578 0 15.155 2.765 21.094 8.397 12.288 11.674 12.8 31.13 1.126 43.418l-70.656 74.547h379.187v-378.47l-75.059 71.168c-12.288 11.674-31.744 11.162-43.418-1.126s-11.162-31.744 1.126-43.418l126.976-120.32c5.939-5.632 13.517-8.397 21.094-8.397s15.258 2.765 21.094 8.397l126.874 120.32c12.288 11.674 12.8 31.13 1.126 43.418s-31.13 12.8-43.418 1.126l-74.957-71.27v378.573h379.699l-71.168-75.059c-11.674-12.288-11.162-31.744 1.126-43.418 5.939-5.632 13.517-8.397 21.094-8.397 8.090 0 16.282 3.174 22.323 9.626l120.32 126.976c11.264 11.776 11.264 30.31 0.102 42.189z" />
<glyph unicode="&#xe905;" glyph-name="Collaboration" d="M890.47 959.488h-755.814c-73.421 0-133.222-59.802-133.222-133.222v-756.429c0-73.421 59.802-133.222 133.222-133.222h755.712c73.421 0 133.222 59.802 133.222 133.222v756.429c0.102 73.523-59.699 133.222-133.12 133.222zM512.512 741.274c16.794 0.205 30.31 13.926 30.31 30.72v126.054h347.648c39.629 0 71.782-32.256 71.782-71.782v-347.546h-126.976c-16.998 0-30.72-13.722-30.72-30.72 0-23.757-19.354-43.11-43.11-43.11s-43.11 19.354-43.11 43.11c0 16.998-13.722 30.72-30.72 30.72h-144.794v145.92c0 16.794-13.517 30.515-30.31 30.72-23.347 0.307-42.291 19.558-42.291 42.906 0 23.45 18.944 42.803 42.291 43.008zM62.771 826.266c0 39.629 32.256 71.782 71.782 71.782h346.726v-100.25c-41.984-13.517-72.602-53.248-72.602-99.533s30.618-85.914 72.602-99.43v-120.013h-117.76c-13.21 42.701-52.941 73.83-99.942 73.83s-86.835-31.13-99.942-73.83h-100.864v347.443zM482.202 124.211v-126.054h-347.546c-39.629 0-71.782 32.256-71.782 71.782v347.546h126.976c16.998 0 30.72 13.722 30.72 30.72 0 23.757 19.354 43.11 43.11 43.11s43.11-19.354 43.11-43.11c0-16.998 13.722-30.72 30.72-30.72h144.794v-145.92c0-16.794 13.517-30.515 30.31-30.72 23.347-0.307 42.291-19.558 42.291-42.906 0-23.45-18.944-42.701-42.291-43.008-16.794-0.205-30.413-13.926-30.413-30.72zM890.47-1.843h-346.829v100.25c41.984 13.517 72.602 53.146 72.602 99.533 0 46.285-30.618 85.914-72.602 99.43v119.91h117.76c13.21-42.701 52.941-73.83 99.942-73.83s86.835 31.13 99.942 73.83h100.864v-347.443c0.102-39.526-32.051-71.68-71.68-71.68z" />
<glyph unicode="&#xe906;" d="M1018.88 448c0-279.942-226.938-506.88-506.88-506.88s-506.88 226.938-506.88 506.88c0 279.942 226.938 506.88 506.88 506.88s506.88-226.938 506.88-506.88z" />
<glyph unicode="&#xe907;" d="M498.995 278.016c-100.762 0-182.784 82.022-182.784 182.784s82.022 182.784 182.784 182.784c100.762 0 182.784-82.022 182.784-182.784s-82.022-182.784-182.784-182.784zM498.995 612.864c-83.866 0-152.064-68.198-152.064-152.064s68.198-152.064 152.064-152.064c83.866 0 152.064 68.198 152.064 152.064s-68.198 152.064-152.064 152.064z" />
<glyph unicode="&#xe908;" d="M692.326 252.416c-3.891 0-7.885 1.536-10.854 4.506l-74.65 74.957c-5.939 6.042-5.939 15.77 0 21.709 6.042 5.939 15.77 5.939 21.709 0l74.65-74.957c5.939-6.042 5.939-15.77 0-21.709-2.97-2.97-6.963-4.506-10.854-4.506z" />
<glyph unicode="&#xe909;" d="M1018.88 448c0-279.942-226.938-506.88-506.88-506.88s-506.88 226.938-506.88 506.88c0 279.942 226.938 506.88 506.88 506.88s506.88-226.938 506.88-506.88z" />
<glyph unicode="&#xe90a;" d="M625.459 241.971h-226.918c-50.995 0-92.57 41.574-92.57 92.57v226.918c0 50.995 41.574 92.57 92.57 92.57h227.021c50.995 0 92.57-41.574 92.57-92.57v-227.021c-0.102-50.995-41.677-92.467-92.672-92.467zM398.541 623.309c-34.099 0-61.85-27.75-61.85-61.85v-226.918c0-34.099 27.75-61.85 61.85-61.85h226.918c34.099 0 61.85 27.75 61.952 61.747v227.021c0 34.099-27.75 61.85-61.85 61.85h-227.021z" />
<glyph unicode="&#xe90b;" d="M424.96 392.602c-3.379 0-6.861 1.126-9.728 3.482-6.554 5.427-7.475 15.053-2.15 21.606l41.574 50.688c5.632 6.861 13.926 11.059 22.835 11.469 8.806 0.41 17.613-2.867 23.859-9.216l40.653-40.653 12.8-10.035-11.571 10.035 56.525 65.434c5.53 6.451 15.258 7.168 21.709 1.536 6.451-5.53 7.168-15.258 1.536-21.709l-56.525-65.434c-5.734-6.656-14.029-10.547-22.733-10.854-8.602-0.307-17.203 3.072-23.45 9.216l-40.653 40.653c0 0-1.229 0-1.229 0l-41.574-50.688c-3.072-3.584-7.475-5.53-11.878-5.53z" />
<glyph unicode="&#xe90c;" d="M1018.88 448c0-279.942-226.938-506.88-506.88-506.88s-506.88 226.938-506.88 506.88c0 279.942 226.938 506.88 506.88 506.88s506.88-226.938 506.88-506.88z" />
<glyph unicode="&#xe90d;" d="M512 234.291c-106.906 0-193.843 86.938-193.843 193.843s86.938 193.843 193.843 193.843c106.906 0 193.843-86.938 193.843-193.843s-86.938-193.843-193.843-193.843zM512 591.258c-89.907 0-163.123-73.216-163.123-163.123s73.216-163.123 163.123-163.123c89.907 0 163.123 73.216 163.123 163.123s-73.216 163.123-163.123 163.123z" />
<glyph unicode="&#xe90e;" d="M594.637 630.989h-165.274c-8.499 0-15.36 6.861-15.36 15.36s6.861 15.36 15.36 15.36h165.274c8.499 0 15.36-6.861 15.36-15.36s-6.861-15.36-15.36-15.36z" />
<glyph unicode="&#xe90f;" d="M512 416.666c-8.499 0-15.36 6.861-15.36 15.36v106.598c0 8.499 6.861 15.36 15.36 15.36s15.36-6.861 15.36-15.36v-106.598c0-8.499-6.861-15.36-15.36-15.36z" />
<glyph unicode="&#xe910;" glyph-name="Contributors" d="M776.192 357.786c-37.376 17.613-76.493 29.491-116.838 35.738 7.987 2.56 15.77 5.53 23.45 9.114 76.698 34.714 126.157 111.718 126.157 195.891 0 103.731-75.571 192.717-175.718 211.558-28.672 86.835-111.206 147.866-204.288 147.866-118.682 0-215.245-96.563-215.245-215.245 0-94.72 63.078-176.947 150.221-204.902-205.517-31.437-363.418-209.306-363.418-423.424 0-16.998 13.722-30.72 30.72-30.72h149.299c-10.035-36.762-15.258-74.752-15.258-113.562 0-16.998 13.722-30.72 30.72-30.72h795.341c16.998 0 30.72 13.722 30.72 30.72 0 165.069-96.563 317.235-245.862 387.686zM747.52 598.528c0-60.211-35.328-115.2-90.214-140.083-19.968-9.114-41.472-13.824-63.693-13.824-57.139 0-109.158 31.334-135.782 81.92-6.554 12.186-11.366 25.19-14.336 39.219 0 0 0 0 0 0.102-2.355 10.342-3.584 21.299-3.584 32.768 0 84.787 69.018 153.805 153.805 153.805 4.403 0 8.704-0.205 13.005-0.512 78.95-6.656 140.8-74.035 140.8-153.395zM275.149 742.707c0 84.787 69.018 153.805 153.805 153.805 58.675 0 111.514-33.894 137.216-84.48-3.174-0.41-6.246-1.126-9.318-1.638-2.765-0.512-5.53-0.819-8.294-1.434-4.301-0.922-8.499-2.15-12.8-3.277-2.355-0.614-4.71-1.229-7.066-1.946-5.427-1.741-10.752-3.686-15.974-5.837-1.024-0.41-2.048-0.717-2.97-1.126-6.144-2.662-12.186-5.53-18.125-8.704-1.741-0.922-3.482-2.048-5.222-3.072-3.994-2.355-8.090-4.71-11.981-7.27-2.15-1.434-4.096-2.97-6.246-4.506-3.277-2.355-6.656-4.813-9.83-7.373-2.15-1.741-4.198-3.584-6.246-5.427-2.97-2.56-5.837-5.12-8.602-7.885-2.048-1.946-3.994-4.096-5.939-6.144-2.662-2.765-5.222-5.53-7.68-8.397-1.843-2.15-3.686-4.506-5.427-6.758-2.355-2.97-4.608-5.939-6.758-9.011-1.638-2.355-3.277-4.813-4.915-7.27-2.048-3.174-3.994-6.349-5.837-9.626-1.434-2.56-2.867-5.018-4.198-7.68-1.741-3.379-3.379-6.861-5.018-10.342-1.229-2.662-2.458-5.222-3.482-7.987-1.434-3.584-2.765-7.373-4.096-11.059-0.922-2.662-1.946-5.325-2.765-8.090-1.229-3.891-2.15-7.987-3.072-11.981-0.614-2.662-1.331-5.222-1.843-7.885-0.922-4.506-1.536-9.114-2.15-13.722-0.307-2.253-0.717-4.506-0.922-6.861-0.717-6.963-1.024-14.029-1.024-21.197 0-0.307 0-0.717 0-1.024-60.109 21.197-103.219 79.053-103.219 145.203zM413.286 480.973c0.614-1.024 1.434-1.946 2.048-2.867 2.253-3.277 4.506-6.554 6.861-9.728 1.126-1.536 2.253-3.072 3.482-4.506 2.662-3.277 5.325-6.451 8.192-9.626 0.922-1.126 1.946-2.15 2.867-3.277 3.789-4.096 7.782-7.987 11.878-11.776 0.819-0.717 1.638-1.434 2.458-2.15 3.379-2.97 6.758-5.837 10.342-8.602 1.434-1.126 2.867-2.15 4.301-3.277 3.072-2.355 6.349-4.506 9.523-6.656 1.536-1.024 2.97-1.946 4.506-2.97 3.789-2.355 7.578-4.608 11.571-6.656 1.024-0.512 1.946-1.126 2.97-1.638 4.915-2.56 9.933-4.915 15.053-7.066 1.331-0.512 2.662-1.024 3.994-1.536 3.891-1.536 7.782-2.97 11.674-4.301 0.819-0.307 1.536-0.614 2.355-0.922-0.102 0-0.307-0.102-0.41-0.102-7.987-1.229-15.77-2.765-23.552-4.403-1.331-0.307-2.662-0.512-4.096-0.819-7.68-1.741-15.155-3.584-22.63-5.734-1.434-0.41-2.867-0.819-4.301-1.229-7.68-2.253-15.258-4.608-22.733-7.27-0.307-0.102-0.512-0.205-0.819-0.307-7.27-2.56-14.541-5.427-21.709-8.397-1.331-0.512-2.56-1.024-3.891-1.638-7.066-3.072-13.926-6.246-20.787-9.626-1.331-0.717-2.662-1.331-4.096-2.048-6.963-3.584-13.926-7.27-20.685-11.162-0.307-0.205-0.717-0.41-1.024-0.614-6.554-3.789-13.005-7.885-19.251-11.981-1.229-0.819-2.458-1.536-3.584-2.355-6.246-4.198-12.39-8.602-18.432-13.21-1.229-0.922-2.458-1.946-3.789-2.867-6.144-4.71-12.186-9.626-18.125-14.746-0.41-0.307-0.717-0.614-1.024-0.922-5.632-4.915-11.162-10.035-16.589-15.258-1.024-1.024-2.15-2.048-3.174-3.072-5.427-5.325-10.65-10.854-15.77-16.486-1.126-1.229-2.15-2.458-3.277-3.584-5.222-5.837-10.24-11.776-15.155-17.92-0.307-0.41-0.717-0.922-1.024-1.331-4.608-5.939-9.114-11.981-13.414-18.125-0.922-1.229-1.741-2.458-2.662-3.686-4.403-6.349-8.602-12.8-12.595-19.354-0.819-1.434-1.741-2.867-2.56-4.301-4.096-6.861-7.987-13.722-11.776-20.787-0.307-0.512-0.512-1.126-0.819-1.638-3.584-6.861-6.861-13.824-10.035-20.787-0.41-0.922-0.819-1.741-1.229-2.56h-139.162c15.258 182.886 165.274 328.090 350.106 335.872zM227.942 0.819c2.867 35.226 10.752 69.632 23.552 102.4 55.296 142.029 189.542 233.882 342.016 233.882 54.579 0 107.213-11.776 156.365-34.918 118.579-55.91 198.349-172.032 209.306-301.363h-731.238z" />
<glyph unicode="&#xe911;" glyph-name="Dashboard" d="M445.44 960.614h-415.334c-16.998 0-30.72-13.722-30.72-30.72v-549.478c0-16.998 13.722-30.72 30.72-30.72h415.334c16.998 0 30.72 13.722 30.72 30.72v549.478c0 16.998-13.722 30.72-30.72 30.72zM414.72 411.136h-353.894v488.038h353.894v-488.038zM993.894 546.304h-427.827c-16.998 0-30.72-13.722-30.72-30.72v-549.478c0-16.998 13.722-30.72 30.72-30.72h427.827c16.998 0 30.72 13.722 30.72 30.72v549.478c0 16.998-13.722 30.72-30.72 30.72zM963.174-3.174h-366.387v488.038h366.387v-488.038zM993.894 960.614h-427.827c-16.998 0-30.72-13.722-30.72-30.72v-272.384c0-16.998 13.722-30.72 30.72-30.72h427.827c16.998 0 30.72 13.722 30.72 30.72v272.384c0 16.998-13.722 30.72-30.72 30.72zM963.174 688.23h-366.387v210.944h366.387v-210.944zM445.44 269.21h-415.334c-16.998 0-30.72-13.722-30.72-30.72v-272.384c0-16.998 13.722-30.72 30.72-30.72h415.334c16.998 0 30.72 13.722 30.72 30.72v272.384c0 16.998-13.722 30.72-30.72 30.72zM414.72-3.174h-353.894v210.944h353.894v-210.944z" />
<glyph unicode="&#xe912;" glyph-name="Design-Culture" d="M1018.47-16.384l-195.174 338.125c-5.53 9.523-15.667 15.36-26.624 15.36s-21.094-5.837-26.624-15.36l-34.406-59.597v326.861c0 16.998-13.722 30.72-30.72 30.72h-338.432c30.003 35.942 48.026 82.125 48.026 132.403 0 114.176-92.877 207.155-207.155 207.155s-207.053-92.979-207.053-207.155 92.877-207.155 207.053-207.155c41.472 0 79.974 12.39 112.435 33.382v-343.859c0-16.998 13.722-30.72 30.72-30.72h351.437l-127.181-220.16c-5.53-9.523-5.53-21.197 0-30.72s15.667-15.36 26.624-15.36h390.554c10.957 0 21.094 5.837 26.624 15.36 5.427 9.523 5.427 21.197-0.102 30.72zM207.36 606.413c-80.282 0-145.613 65.331-145.613 145.715s65.331 145.715 145.613 145.715 145.715-65.331 145.715-145.715-65.331-145.715-145.715-145.715zM674.202 265.318h-292.966v292.966h292.966v-292.966zM654.643-1.024l142.029 245.965 142.029-246.067h-284.058z" />
<glyph unicode="&#xe913;" glyph-name="Design-Leader" d="M771.789 542.72h-234.496c-16.998 0-30.72-13.722-30.72-30.72s13.722-30.72 30.72-30.72h234.496c16.998 0 30.72 13.722 30.72 30.72s-13.722 30.72-30.72 30.72zM310.784 271.667c-116.224 0-223.642-67.789-273.613-172.749-15.974-33.485-13.619-72.397 6.451-104.141 20.48-32.461 55.501-51.712 93.696-51.712h347.136c38.195 0 73.216 19.354 93.696 51.712 19.968 31.642 22.426 70.554 6.451 104.141-50.176 104.96-157.594 172.749-273.818 172.749zM534.63 22.221c-10.957-17.408-29.798-27.853-50.278-27.853h-347.136c-20.48 0-39.322 10.445-50.278 27.853-10.65 16.998-11.981 36.864-3.482 54.682 41.574 87.142 130.765 143.565 227.328 143.565s185.754-56.32 227.328-143.565c8.499-17.818 7.168-37.683-3.482-54.682zM955.597 957.85h-576.614c-36.966 0-66.97-30.106-66.97-66.97v-289.894c-77.21-4.198-138.752-68.198-138.752-146.432 0-80.998 65.843-146.842 146.842-146.842 24.576 0 48.538 6.144 69.939 17.818h565.658c36.966 0 66.97 30.003 66.97 66.867v498.381c0 36.966-30.106 67.072-67.072 67.072zM224.461 454.451c0 52.634 42.803 95.539 95.539 95.539 4.71 0 9.421-0.307 13.926-1.024 46.49-6.758 81.613-47.411 81.613-94.515 0-4.198-0.307-8.294-0.819-12.39-1.229-9.421-3.994-18.432-7.782-26.931-4.403-9.83-10.342-18.944-17.92-26.829-5.632-5.837-12.083-11.059-19.251-15.462-14.95-9.114-32.154-14.029-49.869-14.029-52.531 0.102-95.437 43.008-95.437 95.642zM955.597 376.73h-510.976c0.512 0.819 0.922 1.638 1.434 2.355 1.024 1.741 2.048 3.379 2.97 5.12 0.614 1.126 1.229 2.355 1.843 3.584 0.819 1.741 1.741 3.379 2.56 5.12 0.614 1.229 1.126 2.458 1.638 3.686 0.717 1.741 1.434 3.482 2.15 5.325 0.512 1.229 0.922 2.56 1.434 3.891 0.614 1.843 1.229 3.584 1.741 5.427 0.41 1.331 0.819 2.56 1.126 3.891 0.512 1.843 0.922 3.789 1.434 5.632 0.307 1.331 0.614 2.56 0.922 3.891 0.41 1.946 0.717 3.994 1.024 6.042 0.205 1.229 0.41 2.458 0.614 3.789 0.307 2.253 0.512 4.403 0.717 6.656 0.102 1.126 0.205 2.15 0.307 3.277 0.205 3.379 0.307 6.656 0.307 10.035 0 4.301-0.205 8.602-0.614 12.8-0.102 1.434-0.307 2.765-0.512 4.096-0.307 2.765-0.717 5.632-1.126 8.397-0.307 1.638-0.717 3.174-1.024 4.813-0.512 2.458-1.126 4.915-1.741 7.373-0.41 1.638-0.922 3.277-1.434 4.915-0.717 2.355-1.434 4.608-2.253 6.861-0.614 1.638-1.229 3.277-1.843 4.915-0.922 2.253-1.843 4.403-2.867 6.554-0.717 1.638-1.434 3.174-2.253 4.71-1.126 2.15-2.253 4.198-3.379 6.246-0.819 1.536-1.638 2.97-2.56 4.506-1.331 2.048-2.662 4.096-4.096 6.144-0.922 1.331-1.843 2.765-2.765 4.096-1.638 2.253-3.379 4.301-5.12 6.451-0.819 1.024-1.638 2.15-2.56 3.072-2.662 2.97-5.325 5.939-8.192 8.704-1.024 1.024-2.15 1.946-3.277 2.97-1.946 1.741-3.789 3.584-5.837 5.222-1.331 1.126-2.867 2.15-4.198 3.277-1.843 1.434-3.584 2.765-5.53 4.096-1.536 1.126-3.174 2.048-4.71 3.174-1.843 1.229-3.686 2.355-5.632 3.482-1.638 1.024-3.379 1.843-5.12 2.765-1.946 1.024-3.891 2.048-5.837 2.97-1.741 0.819-3.482 1.638-5.325 2.355-2.048 0.922-4.198 1.638-6.246 2.458-1.741 0.614-3.584 1.331-5.427 1.946-0.717 0.205-1.331 0.512-2.048 0.717v177.050h224.87c16.998 0 30.72 13.722 30.72 30.72s-13.722 30.72-30.72 30.72h-224.973v57.754c0 8.704 7.066 15.77 15.77 15.77h576.717c8.704 0 15.77-7.066 15.77-15.77v-187.597h-368.947c-16.998 0-30.72-13.722-30.72-30.72s13.722-30.72 30.72-30.72h368.845v-249.446c0-8.602-7.066-15.565-15.77-15.565z" />
<glyph unicode="&#xe914;" glyph-name="Design-Maturity" d="M992.461 958.464h-330.547c-16.998 0-30.72-13.722-30.72-30.72v-371.2h-330.547c-16.998 0-30.72-13.722-30.72-30.72v-258.56h-238.387c-16.998 0-30.72-13.722-30.72-30.72v-269.005c0-16.998 13.722-30.72 30.72-30.72h960.922c16.998 0 30.72 13.722 30.72 30.72v960.205c0 16.998-13.722 30.72-30.72 30.72zM961.741-1.741h-899.482v207.565h238.387c16.998 0 30.72 13.722 30.72 30.72v258.56h330.547c16.998 0 30.72 13.722 30.72 30.72v371.2h269.107v-898.765zM437.965 592.691c85.811 0 155.648 69.837 155.648 155.648s-69.837 155.648-155.648 155.648c-85.811 0-155.648-69.837-155.648-155.648s69.734-155.648 155.648-155.648zM437.965 842.547c51.917 0 94.208-42.291 94.208-94.208s-42.291-94.208-94.208-94.208c-51.917 0-94.208 42.291-94.208 94.208 0 52.019 42.189 94.208 94.208 94.208z" />
<glyph unicode="&#xe915;" glyph-name="Design-Team" d="M1014.886 86.835l-87.552 87.552c1.024 7.578 1.638 15.36 1.638 23.040v594.022c0 92.16-74.957 167.117-167.117 167.117h-593.92c-92.16 0-167.117-74.957-167.117-167.117v-590.131c0-92.16 74.957-167.117 166.912-167.117l594.022-3.891c8.397 0 16.589 0.717 24.678 1.843l86.733-86.733c6.042-6.042 13.824-9.011 21.709-9.011s15.667 2.97 21.709 9.011l98.099 97.997c5.734 5.734 9.011 13.619 9.011 21.709s-3.072 15.974-8.806 21.709zM796.57 109.158l-248.218 248.115-29.491 87.040 83.558-31.949 248.32-248.32-54.17-54.886zM167.936 897.126h593.92c57.242 0 103.936-45.875 105.574-102.81l-804.762 3.686c3.277 55.194 49.254 99.123 105.267 99.123zM167.936 95.642c-58.266 0-105.677 47.411-105.677 105.677v535.245l805.171-3.584v-498.688l-226.099 226.099c-1.536 1.536-3.174 2.867-4.915 3.994-0.307 0.205-0.717 0.307-1.024 0.512-1.434 0.922-2.97 1.638-4.506 2.253-0.102 0-0.102 0.102-0.205 0.102l-150.63 57.651c-11.162 4.301-23.654 1.741-32.256-6.554s-11.571-20.685-7.782-31.949l52.634-155.75c0.102-0.205 0.205-0.41 0.307-0.717 0.512-1.536 1.229-2.97 2.048-4.301 0.307-0.512 0.512-1.126 0.819-1.638 1.229-1.843 2.56-3.584 4.198-5.222l226.918-226.918-559.002 3.789zM895.078 10.65l-55.091 55.091 54.272 54.886 55.398-55.398-54.579-54.579z" />
<glyph unicode="&#xe916;" glyph-name="Designer-Researcher" d="M310.784 271.667c-116.224 0-223.642-67.789-273.613-172.749-15.974-33.485-13.619-72.397 6.451-104.141 20.48-32.461 55.501-51.712 93.696-51.712h347.136c38.195 0 73.216 19.354 93.696 51.712 19.968 31.642 22.426 70.554 6.451 104.141-50.176 104.96-157.594 172.749-273.818 172.749zM534.63 22.221c-10.957-17.408-29.798-27.853-50.278-27.853h-347.136c-20.48 0-39.322 10.445-50.278 27.853-10.65 16.998-11.981 36.864-3.482 54.682 41.574 87.142 130.765 143.565 227.328 143.565s185.754-56.32 227.328-143.565c8.499-17.818 7.168-37.683-3.482-54.682zM955.597 957.85h-576.614c-36.966 0-66.97-30.106-66.97-66.97v-289.894c-77.21-4.198-138.752-68.198-138.752-146.432 0-80.998 65.843-146.842 146.842-146.842 24.576 0 48.538 6.144 69.939 17.818h565.658c36.966 0 66.97 30.003 66.97 66.867v498.381c0 36.966-30.106 67.072-67.072 67.072zM378.982 906.547h576.717c8.704 0 15.77-7.066 15.77-15.77v-57.754h-608.256v57.754c0 8.704 7.066 15.77 15.77 15.77zM224.461 454.451c0 52.634 42.803 95.539 95.539 95.539 4.71 0 9.421-0.307 13.926-1.024 46.49-6.758 81.613-47.411 81.613-94.515 0-4.198-0.307-8.294-0.819-12.39-1.229-9.421-3.994-18.432-7.782-26.931-4.403-9.83-10.342-18.944-17.92-26.829-5.632-5.837-12.083-11.059-19.251-15.462-14.95-9.114-32.154-14.029-49.869-14.029-52.531 0.102-95.437 43.008-95.437 95.642zM955.597 376.73h-510.976c0.512 0.819 0.922 1.638 1.434 2.355 1.024 1.741 2.048 3.379 2.97 5.12 0.614 1.126 1.229 2.355 1.843 3.584 0.819 1.741 1.741 3.379 2.56 5.12 0.614 1.229 1.126 2.458 1.638 3.686 0.717 1.741 1.434 3.482 2.15 5.325 0.512 1.229 0.922 2.56 1.434 3.891 0.614 1.843 1.229 3.584 1.741 5.427 0.41 1.331 0.819 2.56 1.126 3.891 0.512 1.843 0.922 3.789 1.434 5.632 0.307 1.331 0.614 2.56 0.922 3.891 0.41 1.946 0.717 3.994 1.024 6.042 0.205 1.229 0.41 2.458 0.614 3.789 0.307 2.253 0.512 4.403 0.717 6.656 0.102 1.126 0.205 2.15 0.307 3.277 0.205 3.379 0.307 6.656 0.307 10.035 0 4.301-0.205 8.602-0.614 12.8-0.102 1.434-0.307 2.765-0.512 4.096-0.307 2.765-0.717 5.632-1.126 8.397-0.307 1.638-0.717 3.174-1.024 4.813-0.512 2.458-1.126 4.915-1.741 7.373-0.41 1.638-0.922 3.277-1.434 4.915-0.717 2.355-1.434 4.608-2.253 6.861-0.614 1.638-1.229 3.277-1.843 4.915-0.922 2.253-1.843 4.403-2.867 6.554-0.717 1.638-1.434 3.174-2.253 4.71-1.126 2.15-2.253 4.198-3.379 6.246-0.819 1.536-1.638 2.97-2.56 4.506-1.331 2.048-2.662 4.096-4.096 6.144-0.922 1.331-1.843 2.765-2.765 4.096-1.638 2.253-3.379 4.301-5.12 6.451-0.819 1.024-1.638 2.15-2.56 3.072-2.662 2.97-5.325 5.939-8.192 8.704-1.024 1.024-2.15 1.946-3.277 2.97-1.946 1.741-3.789 3.584-5.837 5.222-1.331 1.126-2.867 2.15-4.198 3.277-1.843 1.434-3.584 2.765-5.53 4.096-1.536 1.126-3.174 2.048-4.71 3.174-1.843 1.229-3.686 2.355-5.632 3.482-1.638 1.024-3.379 1.843-5.12 2.765-1.946 1.024-3.891 2.048-5.837 2.97-1.741 0.819-3.482 1.638-5.325 2.355-2.048 0.922-4.198 1.638-6.246 2.458-1.741 0.614-3.584 1.331-5.427 1.946-0.717 0.205-1.331 0.512-2.048 0.717v177.050h608.154v-379.29c-0.102-8.602-7.168-15.565-15.872-15.565zM773.12 714.035c-58.982 0-107.622-44.544-114.278-101.786-0.512-2.253-0.819-4.506-0.819-6.861 0-29.594-24.064-53.658-53.658-53.658s-53.658 24.064-53.658 53.658c0 16.998-13.722 30.72-30.72 30.72s-30.72-13.722-30.72-30.72c0-63.488 51.61-115.098 115.098-115.098 58.982 0 107.622 44.544 114.278 101.786 0.512 2.253 0.819 4.506 0.819 6.861 0 29.594 24.064 53.658 53.658 53.658s53.658-24.064 53.658-53.658c0-16.998 13.722-30.72 30.72-30.72s30.72 13.722 30.72 30.72c0.102 63.386-51.61 115.098-115.098 115.098z" />
<glyph unicode="&#xe917;" glyph-name="Difficulty" d="M512 958.054c-62.566 0-123.699-11.162-181.658-33.28-15.872-6.042-23.757-23.757-17.715-39.629s23.757-23.859 39.629-17.715c50.893 19.456 104.653 29.286 159.744 29.286 247.398 0 448.614-201.216 448.614-448.614s-201.216-448.614-448.614-448.614-448.614 201.114-448.614 448.512c0 0.512 0 0.922 0.102 1.434l101.171-5.939c0.512-47.718 10.854-96.051 32.256-142.131 18.022-38.707 42.496-73.216 72.806-102.707 12.186-11.878 31.642-11.571 43.418 0.614 11.878 12.186 11.571 31.642-0.614 43.418-24.883 24.269-45.056 52.634-59.904 84.48-66.56 143.053-4.301 313.446 138.752 380.006 142.95 66.56 313.446 4.301 380.006-138.752 54.067-116.326 23.040-250.778-67.482-332.8l-79.667 96.051c0 0-0.102 0.102-0.102 0.102 54.477 52.736 65.946 138.445 22.938 204.186-9.318 14.234-28.262 18.227-42.496 8.909s-18.227-28.262-8.909-42.496c30.106-46.182 17.101-108.237-29.082-138.342-46.080-30.106-108.237-17.101-138.342 29.082s-17.101 108.237 29.082 138.342c16.282 10.65 35.123 16.282 54.579 16.282 0.41 0 0.819 0 1.229 0 16.794 0 30.515 13.517 30.72 30.413 0.205 16.998-13.414 30.822-30.413 31.027-0.512 0-1.024 0-1.536 0-31.334 0-61.747-9.114-88.166-26.317-74.547-48.64-95.539-148.89-46.899-223.437 30.925-47.309 82.637-73.114 135.373-73.114 20.582 0 41.267 3.994 60.928 12.083 1.024-2.15 2.253-4.096 3.789-6.042l77.107-92.877c-6.963-3.994-14.029-7.782-21.402-11.162-49.050-22.835-103.117-31.232-156.467-24.474-16.896 2.15-32.256-9.728-34.304-26.624-2.15-16.794 9.728-32.256 26.624-34.304 14.541-1.843 29.082-2.765 43.622-2.765 50.381 0 100.25 10.957 146.432 32.461 173.67 80.794 249.344 287.846 168.55 461.619-80.794 173.67-287.846 249.344-461.619 168.55-107.827-50.176-177.766-148.992-196.096-258.253l-101.581 5.939c8.806 62.362 30.515 122.266 64.307 175.923 9.011 14.336 4.71 33.28-9.626 42.394-14.336 9.011-33.28 4.71-42.394-9.626-51.098-80.998-78.131-174.797-78.131-271.155 0-281.19 228.762-510.054 510.054-510.054s510.054 228.864 510.054 510.054c0 281.19-228.864 510.054-510.054 510.054z" />
<glyph unicode="&#xe918;" glyph-name="Duration" d="M512 958.054c-281.19 0-510.054-228.864-510.054-510.054s228.762-510.054 510.054-510.054 510.054 228.864 510.054 510.054c0 281.19-228.864 510.054-510.054 510.054zM512-0.614c-247.398 0-448.614 201.216-448.614 448.614 0 247.296 201.216 448.614 448.614 448.614s448.614-201.318 448.614-448.614c0-247.398-201.216-448.614-448.614-448.614zM542.72 462.438v292.352c0 16.998-13.722 30.72-30.72 30.72s-30.72-13.722-30.72-30.72v-306.79c0-9.114 4.096-17.818 11.162-23.654l155.955-128.922c5.734-4.71 12.698-7.066 19.558-7.066 8.806 0 17.613 3.789 23.654 11.162 10.854 13.107 9.011 32.461-4.096 43.213l-144.794 119.706z" />
<glyph unicode="&#xe919;" glyph-name="Enterprise-Team" d="M990.618 601.395h-227.328v326.042c0 16.998-13.722 30.72-30.72 30.72h-441.139c-16.998 0-30.72-13.722-30.72-30.72v-325.939h-227.328c-16.998 0-30.72-13.722-30.72-30.72v-602.624c0-16.998 13.722-30.72 30.72-30.72h957.133c16.998 0 30.72 13.722 30.72 30.72v602.522c0.102 16.998-13.722 30.72-30.618 30.72zM64.102 539.955h196.608v-541.184h-196.608v541.184zM322.15 570.675v326.042h379.597v-897.843h-379.597v571.802zM959.898-1.229h-196.608v541.184h196.608v-541.184zM599.859 741.683h-175.718c-16.998 0-30.72-13.722-30.72-30.72s13.722-30.72 30.72-30.72h175.821c16.998 0 30.72 13.722 30.72 30.72s-13.824 30.72-30.822 30.72zM599.859 601.395h-175.718c-16.998 0-30.72-13.722-30.72-30.72s13.722-30.72 30.72-30.72h175.821c16.998 0 30.72 13.722 30.72 30.72s-13.824 30.72-30.822 30.72z" />
<glyph unicode="&#xe91a;" glyph-name="Events" d="M856.678 885.453h-162.509v40.96c0 16.998-13.722 30.72-30.72 30.72s-30.72-13.722-30.72-30.72v-40.96h-241.459v40.96c0 16.998-13.722 30.72-30.72 30.72s-30.72-13.722-30.72-30.72v-40.96h-162.509c-91.136 0-165.376-74.138-165.376-165.376v-615.834c0-91.136 74.138-165.376 165.376-165.376h689.357c91.136 0 165.376 74.138 165.376 165.376v615.834c0 91.136-74.24 165.376-165.376 165.376zM167.322 824.013h162.611v-49.050c0-16.998 13.722-30.72 30.72-30.72s30.72 13.722 30.72 30.72v49.050h241.357v-49.050c0-16.998 13.722-30.72 30.72-30.72s30.72 13.722 30.72 30.72v49.050h162.611c57.242 0 103.936-46.592 103.936-103.936v-66.048h-897.331v66.048c0 57.242 46.694 103.936 103.936 103.936zM856.678 0.307h-689.357c-57.242 0-103.936 46.592-103.936 103.936v488.346h897.126v-488.346c0.102-57.344-46.592-103.936-103.834-103.936zM677.581 420.966l-204.493-186.163-91.75 80.896c-12.698 11.264-32.154 10.035-43.315-2.765-11.264-12.698-10.035-32.154 2.765-43.315l112.435-99.123c5.837-5.12 13.107-7.68 20.275-7.68 7.373 0 14.848 2.662 20.685 7.987l224.768 204.698c12.493 11.469 13.414 30.822 2.048 43.418-11.469 12.595-30.925 13.517-43.418 2.048z" />
<glyph unicode="&#xe91b;" glyph-name="Execution" d="M1020.006 863.642c-6.042 7.987-15.36 12.39-25.6 12.288l-631.91-17.51c-11.469-0.307-21.709-6.861-26.829-17.101l-174.592-346.624-148.685-112.845c-6.656-5.018-10.957-12.493-11.981-20.787s1.229-16.589 6.451-23.142l234.803-297.677c6.144-7.782 15.258-11.776 24.371-11.776 6.554 0 13.107 2.048 18.739 6.349l134.758 102.4c0.205 0 0.41-0.102 0.614-0.102 2.253 0 4.608 0.205 6.861 0.819l393.626 89.293c10.854 2.458 19.558 10.547 22.835 21.094l181.453 587.469c2.97 9.523 1.126 19.968-4.915 27.853zM271.565 102.605l-196.403 248.832 100.557 76.288 196.403-248.832-100.557-76.288zM789.504 283.75l-356.966-80.998-213.094 269.824 163.226 324.301 520.294 14.438-228.045-173.261c-30.003 18.022-69.325 17.101-98.714-5.12-18.637-14.131-30.515-34.611-33.382-57.651-2.867-22.938 3.379-45.568 17.818-63.795 17.203-21.709 43.008-33.178 69.018-33.178 18.534 0 37.274 5.837 53.043 17.818 18.637 14.131 30.515 34.611 33.382 57.651 1.536 12.083 0.41 24.064-2.97 35.328l222.925 169.267-146.534-474.624zM654.541 561.562c-0.819-6.349-4.096-11.981-9.421-15.974 0 0 0 0 0 0-11.162-8.499-27.136-6.554-35.738 4.403-3.994 5.018-5.734 11.264-4.915 17.51 0.819 6.349 4.096 11.981 9.421 15.974 4.71 3.584 10.24 5.222 15.667 5.222 7.578 0 15.155-3.277 20.070-9.626 3.891-5.018 5.632-11.264 4.915-17.51z" />
<glyph unicode="&#xe91c;" d="M983.245 448c0 260.096-210.944 471.040-471.245 471.040s-471.245-210.944-471.245-471.040c0-235.11 172.339-429.978 397.619-465.306v329.114h-119.706v136.192h119.706v103.731c0 118.067 70.349 183.296 178.074 183.296 51.61 0 105.472-9.216 105.472-9.216v-115.917h-59.392c-58.47 0-76.8-36.25-76.8-73.523v-88.371h130.662l-20.89-136.192h-109.875v-329.216c225.382 35.43 397.619 230.298 397.619 465.408z" />
<glyph unicode="&#xe91d;" d="M695.398 311.91l20.89 136.090h-130.662v88.371c0 37.274 18.227 73.523 76.8 73.523h59.392v115.917c0 0-53.862 9.216-105.472 9.216-107.622 0-178.074-65.229-178.074-183.296v-103.731h-119.706v-136.192h119.706v-329.216c24.064-3.789 48.64-5.734 73.626-5.734 25.088 0 49.664 1.946 73.626 5.734v329.318h109.875z" />
<glyph unicode="&#xe91e;" glyph-name="GDPR" d="M892.211 714.65h-133.632v61.235c0 100.762-82.022 182.784-182.784 182.784h-122.88c-100.762 0-182.784-82.022-182.784-182.784v-61.235h-138.752c-71.27 0-129.331-52.736-129.331-117.658v-544.87c0-64.922 58.061-117.658 129.331-117.658h760.832c71.27 0 129.331 52.838 129.331 117.658v544.87c0 64.922-58.061 117.658-129.331 117.658zM331.571 775.987c0 66.867 54.477 121.344 121.344 121.344h122.88c66.867 0 121.344-54.477 121.344-121.344v-61.235h-365.568v61.235zM960.102 52.224c0-31.027-30.413-56.218-67.891-56.218h-760.832c-37.478 0-67.891 25.19-67.891 56.218v544.768c0 31.027 30.413 56.218 67.891 56.218h760.832c37.478 0 67.891-25.19 67.891-56.218v-544.768zM514.048 492.442c-69.53 0-126.054-56.525-126.054-126.054 0-58.061 39.526-107.008 93.082-121.549v-139.469c0-16.998 13.722-30.72 30.72-30.72s30.72 13.722 30.72 30.72v138.342c55.808 13.005 97.587 62.976 97.587 122.778 0 69.427-56.525 125.952-126.054 125.952zM514.048 301.773c-35.635 0-64.614 28.979-64.614 64.614s28.979 64.614 64.614 64.614c35.635 0 64.614-28.979 64.614-64.614s-28.979-64.614-64.614-64.614z" />
<glyph unicode="&#xe91f;" glyph-name="Guides" d="M856.678 957.133h-689.357c-91.136 0-165.376-74.138-165.376-165.376v-687.616c0-91.136 74.138-165.376 165.376-165.376h689.357c91.136 0 165.376 74.138 165.376 165.376v687.616c0 91.238-74.24 165.376-165.376 165.376zM960.614 104.243c0-57.242-46.592-103.936-103.936-103.936h-689.357c-57.242 0-103.936 46.592-103.936 103.936v687.514c0 57.242 46.592 103.936 103.936 103.936h689.357c57.242 0 103.936-46.592 103.936-103.936v-687.514zM442.47 735.027l-138.342-136.192-51.712 38.912c-13.619 10.24-32.768 7.475-43.008-6.042s-7.475-32.87 6.042-43.008l72.909-54.784c5.53-4.096 11.981-6.144 18.432-6.144 7.782 0 15.667 2.97 21.606 8.806l157.184 154.726c12.083 11.878 12.288 31.334 0.307 43.418-11.878 11.981-31.334 12.186-43.418 0.307zM442.47 519.782l-138.342-136.192-51.712 38.912c-13.517 10.24-32.768 7.475-43.008-6.042s-7.475-32.768 6.042-43.008l72.909-54.784c5.53-4.096 11.981-6.144 18.432-6.144 7.782 0 15.667 2.97 21.606 8.806l157.184 154.726c12.083 11.878 12.288 31.334 0.307 43.418-11.878 12.083-31.334 12.186-43.418 0.307z" />
<glyph unicode="&#xe920;" glyph-name="Information" d="M512-62.054c-281.19 0-510.054 228.864-510.054 510.054s228.864 510.054 510.054 510.054 510.054-228.864 510.054-510.054c0-281.19-228.864-510.054-510.054-510.054zM512 896.614c-247.398 0-448.614-201.318-448.614-448.614 0-247.398 201.216-448.614 448.614-448.614s448.614 201.216 448.614 448.614c0 247.296-201.216 448.614-448.614 448.614zM512 240.538c-19.763 0-35.84 16.077-35.84 35.84v222.822c0 19.763 16.077 35.84 35.84 35.84s35.84-16.077 35.84-35.84v-222.925c0-19.763-16.077-35.738-35.84-35.738zM517.12 592.691h-10.24c-19.763 0-35.84 16.077-35.84 35.84s16.077 35.84 35.84 35.84h10.24c19.763 0 35.84-16.077 35.84-35.84s-16.077-35.84-35.84-35.84z" />
<glyph unicode="&#xe921;" glyph-name="Integration" d="M807.936 449.843c0 163.226-132.71 296.038-295.936 296.038-129.229 0-241.664-82.534-281.088-203.469-60.826-7.782-108.032-59.699-108.032-122.675 0-68.301 55.501-123.802 123.802-123.802 4.096 0 8.090 0.307 12.186 0.717 53.35-88.576 148.275-142.746 253.133-142.746 163.226 0 295.936 132.813 295.936 295.936zM184.32 419.738c0 34.406 27.955 62.362 62.362 62.362 1.638 0 3.379-0.102 5.12-0.205 32.154-2.56 57.242-29.901 57.242-62.157 0-3.379-0.307-6.758-0.819-10.035-3.686-22.938-19.968-42.189-42.803-49.357-6.042-1.946-12.288-2.97-18.739-2.97-34.406 0-62.362 28.058-62.362 62.362zM512 215.347c-79.053 0-151.040 38.81-194.253 102.912 0.205 0.102 0.41 0.307 0.512 0.41 3.584 2.458 6.963 5.222 10.24 8.090 0.717 0.614 1.331 1.229 2.048 1.946 2.867 2.56 5.53 5.325 8.090 8.192 0.41 0.512 0.922 0.922 1.331 1.434 2.867 3.277 5.427 6.656 7.885 10.138 0.614 0.819 1.126 1.638 1.638 2.458 2.15 3.277 4.198 6.656 6.144 10.138 0.205 0.41 0.512 0.819 0.717 1.331 2.048 3.789 3.789 7.782 5.325 11.878 0.41 0.922 0.717 1.946 1.126 2.867 1.434 3.891 2.662 7.782 3.686 11.878 0.102 0.307 0.205 0.614 0.205 0.922 1.024 4.301 1.843 8.704 2.458 13.107 0.102 1.024 0.307 2.15 0.41 3.174 0.512 4.506 0.819 9.011 0.819 13.619 0 3.686-0.205 7.27-0.512 10.854-0.102 1.126-0.307 2.253-0.41 3.277-0.307 2.458-0.614 5.018-1.126 7.475-0.205 1.229-0.41 2.458-0.717 3.584-0.512 2.458-1.126 4.813-1.741 7.27-0.307 1.024-0.512 2.15-0.819 3.174-1.024 3.379-2.15 6.656-3.482 9.933 0 0.102 0 0.102-0.102 0.205-1.229 3.174-2.765 6.246-4.198 9.318-0.512 1.024-1.024 1.946-1.536 2.97-1.126 2.15-2.253 4.198-3.584 6.246-0.614 1.024-1.331 2.15-2.048 3.174-1.331 1.946-2.662 3.891-3.994 5.734-0.717 0.922-1.331 1.843-2.048 2.765-1.946 2.56-3.994 5.018-6.144 7.373-0.41 0.41-0.819 0.819-1.126 1.229-2.048 2.253-4.198 4.403-6.451 6.451-0.922 0.819-1.946 1.638-2.867 2.56-1.638 1.434-3.277 2.765-5.018 4.198-1.126 0.819-2.253 1.741-3.379 2.56-1.741 1.229-3.482 2.458-5.222 3.584-1.126 0.717-2.253 1.536-3.379 2.253-2.355 1.434-4.813 2.765-7.27 4.096-1.126 0.614-2.355 1.126-3.482 1.741-2.15 1.024-4.198 2.048-6.451 2.97 34.202 89.293 120.32 149.606 218.726 149.606 129.331 0 234.496-105.267 234.496-234.598 0-129.229-105.165-234.496-234.496-234.496zM1021.542 449.126c0 97.382-27.238 190.976-78.848 272.384 17.203 21.606 26.726 48.435 26.726 76.8 0 68.301-55.501 123.802-123.802 123.802-30.106 0-58.88-11.059-81.101-30.413-76.8 43.93-163.533 66.97-252.518 66.97-280.986 0-509.645-228.557-509.645-509.542s228.659-509.645 509.645-509.645c80.589 0 160.051 19.354 231.322 55.706 21.811-17.613 48.947-27.443 77.619-27.443 68.301 0 123.802 55.501 123.802 123.802 0 22.323-6.042 43.827-17.203 62.669 61.542 86.323 94.003 187.802 94.003 294.912zM907.981 798.31c0-19.251-8.602-37.069-23.757-48.947-11.059-8.806-24.371-13.414-38.605-13.414-34.406 0-62.362 27.955-62.362 62.362 0 13.21 3.994 25.702 11.776 36.352 11.674 16.282 30.618 26.010 50.586 26.010 34.406 0 62.362-27.955 62.362-62.362zM512 0.922c-247.091 0-448.205 201.114-448.205 448.205s201.114 448.102 448.205 448.102c76.493 0 151.040-19.354 217.395-56.115-0.307-0.717-0.41-1.434-0.717-2.15-0.614-1.946-1.229-3.789-1.843-5.734-0.41-1.331-0.819-2.662-1.126-3.994-0.512-2.048-0.922-4.096-1.434-6.246-0.307-1.331-0.512-2.56-0.717-3.891-0.41-2.355-0.717-4.608-0.922-6.963-0.102-1.126-0.307-2.15-0.41-3.277-0.307-3.482-0.41-6.963-0.41-10.445 0-68.301 55.501-123.802 123.802-123.802 3.891 0 7.782 0.205 11.571 0.614 1.229 0.102 2.355 0.307 3.584 0.41 2.662 0.307 5.222 0.717 7.885 1.126 1.331 0.205 2.662 0.512 3.994 0.819 2.458 0.512 4.915 1.126 7.27 1.843 1.331 0.41 2.56 0.717 3.891 1.126 2.56 0.819 5.018 1.741 7.475 2.765 0.819 0.307 1.536 0.512 2.355 0.819 43.52-70.451 66.458-151.142 66.458-235.008 0-90.726-26.419-176.742-76.698-250.778-0.205 0.102-0.41 0.205-0.512 0.307-4.301 2.458-8.704 4.71-13.312 6.656-1.126 0.41-2.15 0.819-3.277 1.229-3.584 1.434-7.168 2.662-10.752 3.686-1.536 0.41-3.072 0.819-4.71 1.229-3.482 0.819-6.963 1.536-10.445 2.15-1.536 0.205-2.97 0.512-4.506 0.717-4.915 0.614-9.933 1.024-14.95 1.024-68.301 0-123.802-55.501-123.802-123.802 0-3.789 0.205-7.578 0.512-11.366 0.102-1.229 0.307-2.458 0.512-3.686 0.307-2.458 0.614-5.018 1.024-7.475 0.307-1.434 0.614-2.97 0.922-4.403 0.512-2.15 1.024-4.403 1.638-6.554 0.41-1.536 0.922-3.072 1.434-4.608 0.614-2.048 1.331-3.994 2.15-6.042 0.307-0.819 0.512-1.638 0.819-2.355-60.211-28.877-126.771-44.134-194.15-44.134zM820.941 29.184c-18.842 0-36.454 8.397-48.333 22.938-9.216 11.366-14.029 24.986-14.029 39.424 0 34.406 27.955 62.362 62.362 62.362 2.253 0 4.403-0.102 6.554-0.307 2.458-0.205 4.915-0.717 7.373-1.229 12.186-2.765 23.245-9.114 32.051-18.637 10.65-11.571 16.486-26.522 16.486-42.189-0.102-34.304-28.058-62.362-62.464-62.362z" />
<glyph unicode="&#xe922;" glyph-name="Knowledge" d="M994.509-2.15h-830.669c-55.706 0-101.069 45.363-101.069 101.069s45.363 101.069 101.069 101.069h830.566c16.998 0 30.72 13.722 30.72 30.72 0 2.15-0.205 4.301-0.717 6.451 0 0.41 0.102 0.819 0.102 1.229v692.634c0 16.998-13.722 30.72-30.72 30.72h-863.027c-71.68 0-129.946-58.266-129.946-129.946v-726.63c0-1.946 0.205-3.891 0.614-5.734 0-0.102 0-0.205 0-0.41 0-89.6 72.909-162.509 162.509-162.509h830.566c16.998 0 30.72 13.722 30.72 30.72s-13.824 30.618-30.72 30.618zM963.174 261.427h-704.512v638.874h704.512v-638.874zM130.765 900.301h66.458v-638.874h-33.382c-38.4 0-73.728-13.517-101.581-35.84v606.208c0 37.683 30.72 68.506 68.506 68.506zM526.541 680.243h175.821c16.998 0 30.72 13.722 30.72 30.72s-13.722 30.72-30.72 30.72h-175.821c-16.998 0-30.72-13.722-30.72-30.72s13.722-30.72 30.72-30.72z" />
<glyph unicode="&#xe923;" d="M512-23.040c260.301 0 471.245 210.842 471.245 471.040s-210.944 471.040-471.245 471.040c-260.301 0-471.245-210.842-471.245-471.040s210.944-471.040 471.245-471.040z" />
<glyph unicode="&#xe924;" d="M548.454 512.41c7.782 8.704 14.131 17.51 22.016 24.986 24.474 23.040 53.35 34.611 87.142 34.304 18.534-0.102 36.864-1.434 54.784-6.656 40.96-11.776 64.614-39.936 76.083-79.872 8.499-29.901 10.035-60.723 10.138-91.546 0.102-65.024-0.205-130.15 0-195.174 0-6.042-1.638-7.68-7.68-7.578-33.485 0.307-67.072 0.307-100.659 0-5.939 0-7.168 1.741-7.168 7.373 0.205 61.85 0.205 123.802 0 185.754 0 15.462-1.024 31.027-5.325 46.080-7.987 27.75-27.955 41.984-57.037 40.448-39.834-2.048-60.416-21.811-65.536-62.157-1.229-9.626-1.843-19.354-1.741-28.979 0-60.211 0-120.422 0.102-180.634 0-6.042-1.434-7.782-7.578-7.782-33.792 0.307-67.584 0.307-101.376 0-5.427 0-6.963 1.434-6.963 6.861 0.102 119.194 0.102 238.49 0 357.683 0 5.939 1.946 7.27 7.578 7.27 32.051-0.205 64.205-0.307 96.256 0 5.939 0 7.373-1.843 7.373-7.475-0.512-14.438-0.307-28.672-0.41-42.906v0z" />
<glyph unicode="&#xe925;" d="M364.646 376.115c0-58.982-0.102-117.965 0.102-176.947 0-6.554-1.638-8.499-8.397-8.397-33.485 0.307-67.072 0.307-100.659 0-5.427 0-6.963 1.331-6.963 6.861 0.102 119.398 0.102 238.797 0 358.298 0 4.915 1.229 6.656 6.451 6.656 33.997-0.205 67.994-0.307 101.99 0 6.554 0 7.373-2.458 7.373-8.090 0-59.494 0.102-118.989 0.102-178.381v0z" />
<glyph unicode="&#xe926;" d="M373.965 680.858c0-37.069-30.003-67.174-67.072-67.174-36.557 0-66.867 30.106-66.97 66.662-0.102 36.864 30.208 67.174 67.072 67.174 36.762 0 66.867-30.106 66.97-66.662v0z" />
<glyph unicode="&#xe927;" d="M512-23.040c260.301 0 471.245 210.842 471.245 471.040s-210.944 471.040-471.245 471.040c-260.301 0-471.245-210.842-471.245-471.040s210.944-471.040 471.245-471.040z" />
<glyph unicode="&#xe928;" d="M538.931 424.448c0-104.851-84.999-189.85-189.85-189.85s-189.85 84.999-189.85 189.85c0 104.851 84.999 189.85 189.85 189.85s189.85-84.999 189.85-189.85z" />
<glyph unicode="&#xe929;" d="M743.322 424.96c0-97.951-42.545-177.357-95.027-177.357s-95.027 79.405-95.027 177.357c0 97.951 42.545 177.357 95.027 177.357s95.027-79.405 95.027-177.357z" />
<glyph unicode="&#xe92a;" d="M825.958 425.472c0-87.885-14.808-159.13-33.075-159.13s-33.075 71.245-33.075 159.13c0 87.885 14.808 159.13 33.075 159.13s33.075-71.245 33.075-159.13z" />
<glyph unicode="&#xe92b;" glyph-name="My-work" d="M694.989 683.11h-228.045c-16.998 0-30.72-13.722-30.72-30.72s13.722-30.72 30.72-30.72h228.147c16.998 0 30.72 13.722 30.72 30.72s-13.824 30.72-30.822 30.72zM694.989 378.163h-228.045c-16.998 0-30.72-13.722-30.72-30.72s13.722-30.72 30.72-30.72h228.147c16.998 0 30.72 13.722 30.72 30.72s-13.824 30.72-30.822 30.72zM694.989 530.637h-228.045c-16.998 0-30.72-13.722-30.72-30.72s13.722-30.72 30.72-30.72h228.147c16.998 0 30.72 13.722 30.72 30.72s-13.824 30.72-30.822 30.72zM836.915 876.954h-522.138c-54.272 0-98.406-44.134-98.406-98.406v-28.058h-37.888c-56.218 0-101.99-45.773-101.99-101.99v-528.486c0-56.218 45.773-101.99 101.99-101.99h514.97c56.218 0 101.99 45.773 101.99 101.99v24.576h41.472c54.272 0 98.406 44.134 98.406 98.406v535.552c-0.102 54.272-44.237 98.406-98.406 98.406zM734.003 120.013c0-22.323-18.125-40.55-40.55-40.55h-514.97c-22.323 0-40.55 18.125-40.55 40.55v528.486c0 22.323 18.125 40.55 40.55 40.55h37.888v-446.054c0-54.272 44.134-98.406 98.406-98.406h419.123v-24.576zM873.779 242.893c0-20.378-16.589-36.966-36.966-36.966h-508.826c-27.648 0-50.074 22.426-50.074 50.074v522.445c0 20.378 16.589 36.966 36.966 36.966h522.035c20.378 0 36.966-16.589 36.966-36.966v-535.552z" />
<glyph unicode="&#xe92c;" glyph-name="New-Icons_Arrow-Bottom" d="M511.898 192c-11.059 0-22.118 3.994-30.822 11.878l-464.794 419.43c-18.842 17.101-20.378 46.182-3.277 65.126 17.101 18.842 46.182 20.275 65.024 3.277l433.869-391.578 434.074 391.578c18.842 16.998 48.026 15.565 65.126-3.379s15.565-48.026-3.379-65.126l-464.896-419.43c-8.806-7.782-19.866-11.776-30.925-11.776z" />
<glyph unicode="&#xe92d;" glyph-name="New-Icons_Arrow-Left" horiz-adv-x="512" d="M465.715-62.874c-12.595 0-25.088 5.12-34.202 15.258l-419.43 464.794c-15.872 17.51-15.872 44.237 0 61.747l419.43 464.794c17.101 18.842 46.182 20.378 65.126 3.379 18.944-17.101 20.378-46.182 3.379-65.126l-391.68-433.869 391.578-433.971c17.101-18.944 15.565-48.026-3.379-65.126-8.806-7.987-19.763-11.878-30.822-11.878z" />
<glyph unicode="&#xe92e;" glyph-name="New-Icons_Arrow-Right" horiz-adv-x="512" d="M46.285-62.874c-11.059 0-22.016 3.891-30.822 11.878-18.944 17.101-20.378 46.182-3.379 65.126l391.578 433.869-391.578 433.971c-17.101 18.944-15.565 48.026 3.379 65.126 18.842 16.998 48.026 15.565 65.126-3.379l419.43-464.896c15.872-17.51 15.872-44.237 0-61.747l-419.533-464.794c-9.114-10.035-21.606-15.155-34.202-15.155z" />
<glyph unicode="&#xe92f;" glyph-name="New-Icons_Arrow-Top" d="M47.206 192c-12.595 0-25.088 5.12-34.202 15.258-17.101 18.944-15.565 48.026 3.379 65.126l464.794 419.328c17.51 15.872 44.237 15.872 61.747 0l464.691-419.43c18.944-17.101 20.378-46.182 3.379-65.126-17.101-18.944-46.182-20.378-65.126-3.379l-433.766 391.68-434.074-391.578c-8.806-7.987-19.763-11.878-30.822-11.878z" />
<glyph unicode="&#xe930;" glyph-name="People-Ops" d="M363.93 330.547c-200.090 0-363.008-162.816-363.008-363.008 0-16.998 13.722-30.72 30.72-30.72h664.678c16.998 0 30.72 13.722 30.72 30.72 0 200.192-162.816 363.008-363.11 363.008zM63.898-1.741c15.462 151.962 144.077 270.95 300.032 270.95s284.672-118.989 300.032-270.95h-600.064zM1011.814 541.491l-28.365 23.45c-17.715 14.541-27.546 34.202-27.546 55.296s9.83 40.755 27.546 55.296l28.365 23.347c11.571 9.626 14.541 26.010 7.066 39.117l-13.414 23.245c-14.95 25.805-29.696 51.405-44.442 77.107-9.216 16.077-26.726 22.016-44.646 15.258l-6.144-2.355c-9.114-3.482-18.432-7.066-27.648-10.138l-13.619-3.379c-37.274-4.71-70.963 22.118-76.902 61.235-1.229 7.885-2.56 15.77-3.994 24.064l-1.843 10.752c-2.458 14.848-15.258 25.6-30.31 25.6h-120.115c-15.053 0-27.75-10.752-30.31-25.498l-2.15-12.8c-1.536-9.114-3.072-18.125-4.71-27.034-3.686-19.866-15.565-37.069-32.768-47.206-17.101-10.138-37.786-12.39-56.832-6.144-9.421 3.072-19.251 6.861-28.672 10.445l-6.144 2.355c-21.914 8.294-38.81-2.867-45.363-16.794-5.632-11.981-9.933-21.709-14.438-31.846-4.198-9.421-8.602-19.456-14.541-32.256l-23.654-50.176c-0.41 0-0.717 0.102-1.126 0.102-96.973 0-175.923-78.95-175.923-175.923s78.95-175.923 175.923-175.923c43.315 0 82.842 15.77 113.562 41.779 3.174-0.41 6.451-0.512 9.83 0 23.962 4.198 45.261-1.126 69.12-17.306 16.179-10.957 28.877-32.358 32.154-54.272 1.126-7.475 2.355-14.95 3.686-22.528l2.048-12.083c2.458-14.848 15.258-25.702 30.31-25.702h119.091c15.053 0 27.853 10.752 30.31 25.702l1.843 10.854c1.331 7.987 2.765 15.872 3.891 23.757 3.174 21.299 14.131 39.322 30.72 50.586 15.565 10.547 34.714 13.926 53.658 9.523 9.421-2.15 19.251-6.042 29.696-10.138l1.126-0.41c3.482-1.331 6.963-2.765 10.547-4.096 18.022-6.656 36.147 0.102 45.158 16.896 2.253 4.198 4.71 8.397 7.27 12.8l49.766 86.221c7.475 13.21 4.506 29.696-7.066 39.219zM448.41 737.485c5.325 11.674 11.162 23.245 16.794 34.611 2.662 5.427 5.427 10.752 7.987 16.077 5.427-2.048 10.957-3.994 16.589-5.837 35.84-11.776 75.059-7.578 107.315 11.571 32.358 19.251 54.886 51.61 61.85 88.883 0.922 5.018 1.843 10.035 2.662 15.155h68.301c0.41-2.765 0.922-5.53 1.331-8.294 11.264-73.523 76.186-122.982 148.070-112.538l19.354 4.608 1.946 0.614c6.042 2.048 11.981 4.096 17.818 6.349 10.138-17.613 20.378-35.328 30.618-53.043l3.482-6.042-8.090-6.758c-31.744-26.112-50.074-63.59-50.074-102.81s18.227-76.698 49.971-102.707c2.765-2.253 5.427-4.506 8.192-6.758l-33.997-58.982c-9.114 3.482-19.046 6.963-29.389 9.318-35.942 8.397-72.192 1.843-102.093-18.534-30.925-20.992-51.2-53.76-57.037-92.262-0.41-2.662-0.819-5.325-1.229-7.987h-67.174c-0.41 2.662-0.819 5.325-1.229 7.987-5.939 39.322-27.75 75.162-58.368 95.949-20.685 14.029-44.134 23.142-67.379 26.931 10.342 22.426 16.384 47.309 16.384 73.626 0 75.059-47.309 139.059-113.562 164.25l10.957 26.624zM374.989 432.333c-63.078 0-114.483 51.302-114.483 114.483s51.302 114.483 114.483 114.483 114.483-51.405 114.483-114.586-51.302-114.381-114.483-114.381zM701.133 484.762c1.946 0 4.096 0 5.53 0.102 75.264 3.174 134.144 65.536 131.174 139.162-1.536 37.069-17.306 71.168-44.339 96.154l-0.102 0.102c-26.419 24.166-60.211 36.659-95.334 35.021-75.162-3.277-133.837-65.843-130.765-139.366 1.434-36.25 16.691-69.837 42.906-94.618 24.883-23.654 57.139-36.557 90.931-36.557zM704 697.139c18.432 0 36.147-7.066 49.971-19.763 15.667-14.438 24.781-34.202 25.6-54.886 0-0.922 0-1.741 0.102-3.686 0-40.038-33.792-74.035-75.366-75.674-19.968-0.819-39.219 6.451-53.965 20.48-15.053 14.336-23.859 33.792-24.781 54.682-1.741 41.574 32.051 76.902 74.24 78.848h4.198z" />
<glyph unicode="&#xe931;" glyph-name="Podcast" d="M512 197.837c129.843 0 235.52 105.677 235.52 235.52v290.202c0 129.843-105.677 235.52-235.52 235.52s-235.52-105.677-235.52-235.52v-290.099c0-129.946 105.677-235.622 235.52-235.622zM337.92 723.558c0 95.949 78.131 174.080 174.080 174.080s174.080-78.131 174.080-174.080v-9.318h-131.072c-16.998 0-30.72-13.722-30.72-30.72s13.722-30.72 30.72-30.72h131.072v-90.419h-131.072c-16.998 0-30.72-13.722-30.72-30.72s13.722-30.72 30.72-30.72h131.072v-67.584c0-95.949-78.131-174.080-174.080-174.080s-174.080 78.131-174.080 174.080v290.202zM988.979 574.669c-16.998 0-30.72-13.722-30.72-30.72v-1.536c0-200.294-154.317-374.067-358.81-404.173-26.829-3.994-54.17-5.939-81.408-5.939-54.17 0-107.725 7.782-159.027 23.142-172.646 51.814-293.274 211.558-293.274 388.506 0 16.998-13.722 30.72-30.72 30.72s-30.72-13.722-30.72-30.72c0-207.155 135.373-386.867 336.998-447.283 45.466-13.619 92.365-21.811 139.981-24.576v-74.547h-95.539c-16.998 0-30.72-13.722-30.72-30.72s13.722-30.72 30.72-30.72h252.621c16.998 0 30.72 13.722 30.72 30.72s-13.722 30.72-30.72 30.72h-95.642v73.83c22.016 0.922 44.032 2.867 65.638 6.042 234.496 34.509 411.341 234.394 411.341 464.998v1.536c0 16.998-13.824 30.72-30.72 30.72z" />
<glyph unicode="&#xe932;" d="M1014.374 448c0-277.454-224.921-502.374-502.374-502.374s-502.374 224.921-502.374 502.374c0 277.454 224.921 502.374 502.374 502.374s502.374-224.921 502.374-502.374z" />
<glyph unicode="&#xe933;" d="M788.787 199.68h-259.789c-10.035 0-18.125 8.090-18.125 18.125v458.342c0 10.035 8.090 18.125 18.125 18.125h259.789c10.035 0 18.125-8.090 18.125-18.125v-458.24c0-10.035-8.090-18.227-18.125-18.227zM547.123 235.93h223.539v422.093h-223.539v-422.093z" />
<glyph unicode="&#xe934;" d="M528.998 199.68h-152.064c-10.035 0-18.125 8.090-18.125 18.125v287.949c0 6.963 4.096 13.414 10.342 16.384l151.962 71.578c5.632 2.662 12.186 2.253 17.408-1.126s8.397-9.114 8.397-15.258v-359.526c0.205-9.933-7.987-18.125-17.92-18.125zM395.059 235.93h115.814v312.832l-115.814-54.579v-258.253z" />
<glyph unicode="&#xe935;" d="M376.934 199.68h-151.962c-10.035 0-18.125 8.090-18.125 18.125v156.058c0 10.035 8.090 18.125 18.125 18.125h151.962c10.035 0 18.125-8.090 18.125-18.125v-156.058c0-9.933-8.090-18.125-18.125-18.125zM243.098 235.93h115.814v119.808h-115.814v-119.808z" />
<glyph unicode="&#xe936;" d="M700.928 548.557h-83.968c-10.035 0-18.125 8.090-18.125 18.125s8.090 18.125 18.125 18.125h83.968c10.035 0 18.125-8.090 18.125-18.125s-8.192-18.125-18.125-18.125z" />
<glyph unicode="&#xe937;" d="M700.928 481.587h-83.968c-10.035 0-18.125 8.090-18.125 18.125s8.090 18.125 18.125 18.125h83.968c10.035 0 18.125-8.090 18.125-18.125s-8.192-18.125-18.125-18.125z" />
<glyph unicode="&#xe938;" d="M991.334 448c0-264.729-214.605-479.334-479.334-479.334s-479.334 214.605-479.334 479.334c0 264.729 214.605 479.334 479.334 479.334s479.334-214.605 479.334-479.334z" />
<glyph unicode="&#xe939;" d="M460.186 304.947c-7.578 0-15.155 2.355-21.504 7.168l-123.392 92.877c-15.77 11.878-19.046 34.406-7.066 50.176 11.878 15.872 34.406 19.046 50.176 7.066l98.714-74.24 216.678 213.299c14.131 13.824 36.762 13.722 50.688-0.41s13.722-36.762-0.41-50.688l-238.694-234.906c-6.963-6.861-16.077-10.342-25.19-10.342z" />
<glyph unicode="&#xe93a;" d="M991.334 448c0-264.729-214.605-479.334-479.334-479.334s-479.334 214.605-479.334 479.334c0 264.729 214.605 479.334 479.334 479.334s479.334-214.605 479.334-479.334z" />
<glyph unicode="&#xe93b;" d="M460.186 304.947c-7.578 0-15.155 2.355-21.504 7.168l-123.392 92.877c-15.77 11.878-19.046 34.406-7.066 50.176 11.878 15.872 34.406 19.046 50.176 7.066l98.816-74.24 216.576 213.299c14.131 13.824 36.762 13.722 50.688-0.41s13.722-36.762-0.41-50.688l-238.694-234.906c-6.963-6.861-16.077-10.342-25.19-10.342z" />
<glyph unicode="&#xe93c;" d="M991.334 448c0-264.729-214.605-479.334-479.334-479.334s-479.334 214.605-479.334 479.334c0 264.729 214.605 479.334 479.334 479.334s479.334-214.605 479.334-479.334z" />
<glyph unicode="&#xe93d;" d="M460.186 304.947c-7.578 0-15.155 2.355-21.504 7.168l-123.392 92.877c-15.77 11.878-19.046 34.406-7.066 50.176 11.878 15.872 34.406 19.046 50.176 7.066l98.816-74.24 216.576 213.299c14.131 13.824 36.762 13.722 50.688-0.41s13.722-36.762-0.41-50.688l-238.694-234.906c-6.963-6.861-15.974-10.342-25.19-10.342z" />
<glyph unicode="&#xe93e;" d="M991.334 448c0-264.729-214.605-479.334-479.334-479.334s-479.334 214.605-479.334 479.334c0 264.729 214.605 479.334 479.334 479.334s479.334-214.605 479.334-479.334z" />
<glyph unicode="&#xe93f;" d="M460.186 304.947c-7.578 0-15.155 2.355-21.504 7.168l-123.392 92.877c-15.77 11.878-19.046 34.406-7.066 50.176 11.878 15.872 34.406 19.046 50.176 7.066l98.714-74.24 216.678 213.299c14.131 13.824 36.762 13.722 50.688-0.41s13.722-36.762-0.41-50.688l-238.694-234.906c-6.963-6.861-16.077-10.342-25.19-10.342z" />
<glyph unicode="&#xe940;" glyph-name="Product-Manager" d="M310.784 271.667c-116.224 0-223.642-67.789-273.613-172.749-15.974-33.485-13.619-72.397 6.451-104.141 20.48-32.461 55.501-51.712 93.696-51.712h347.136c38.195 0 73.216 19.354 93.696 51.712 19.968 31.642 22.426 70.554 6.451 104.141-50.176 104.96-157.594 172.749-273.818 172.749zM534.63 22.221c-10.957-17.408-29.798-27.853-50.278-27.853h-347.136c-20.48 0-39.322 10.445-50.278 27.853-10.65 16.998-11.981 36.864-3.482 54.682 41.574 87.142 130.765 143.565 227.328 143.565s185.754-56.32 227.328-143.565c8.499-17.818 7.168-37.683-3.482-54.682zM955.597 957.85h-576.614c-36.966 0-66.97-30.106-66.97-66.97v-289.894c-77.21-4.198-138.752-68.198-138.752-146.432 0-80.998 65.843-146.842 146.842-146.842 24.576 0 48.538 6.144 69.939 17.818h565.658c36.966 0 66.97 30.003 66.97 66.867v498.381c0 36.966-30.106 67.072-67.072 67.072zM224.461 454.451c0 52.634 42.803 95.539 95.539 95.539 4.71 0 9.421-0.307 13.926-1.024 46.49-6.758 81.613-47.411 81.613-94.515 0-4.198-0.307-8.294-0.819-12.39-1.229-9.421-3.994-18.432-7.782-26.931-4.403-9.83-10.342-18.944-17.92-26.829-5.632-5.837-12.083-11.059-19.251-15.462-14.95-9.114-32.154-14.029-49.869-14.029-52.531 0.102-95.437 43.008-95.437 95.642zM971.366 392.397c0-8.602-7.066-15.667-15.77-15.667h-510.976c0.512 0.819 0.922 1.638 1.434 2.355 1.024 1.741 2.048 3.379 2.97 5.12 0.614 1.126 1.229 2.355 1.843 3.584 0.819 1.741 1.741 3.379 2.56 5.12 0.614 1.229 1.126 2.458 1.638 3.686 0.717 1.741 1.434 3.482 2.15 5.325 0.512 1.229 0.922 2.56 1.434 3.891 0.614 1.843 1.229 3.584 1.741 5.427 0.41 1.331 0.819 2.56 1.126 3.891 0.512 1.843 0.922 3.789 1.434 5.632 0.307 1.331 0.614 2.56 0.922 3.891 0.41 1.946 0.717 3.994 1.024 6.042 0.205 1.229 0.41 2.458 0.614 3.789 0.307 2.253 0.512 4.403 0.717 6.656 0.102 1.126 0.205 2.15 0.307 3.277 0.205 3.379 0.307 6.656 0.307 10.035 0 4.301-0.205 8.602-0.614 12.8-0.102 1.434-0.307 2.765-0.512 4.096-0.307 2.765-0.717 5.632-1.126 8.397-0.307 1.638-0.717 3.174-1.024 4.813-0.512 2.458-1.126 4.915-1.741 7.373-0.41 1.638-0.922 3.277-1.434 4.915-0.717 2.355-1.434 4.608-2.253 6.861-0.614 1.638-1.229 3.277-1.843 4.915-0.922 2.253-1.843 4.403-2.867 6.554-0.717 1.638-1.434 3.174-2.253 4.71-1.126 2.15-2.253 4.198-3.379 6.246-0.819 1.536-1.638 2.97-2.56 4.506-1.331 2.048-2.662 4.096-4.096 6.144-0.922 1.331-1.843 2.765-2.765 4.096-1.638 2.253-3.379 4.301-5.12 6.451-0.819 1.024-1.638 2.15-2.56 3.072-2.662 2.97-5.325 5.939-8.192 8.704-1.024 1.024-2.15 1.946-3.277 2.97-1.946 1.741-3.789 3.584-5.837 5.222-1.331 1.126-2.867 2.15-4.198 3.277-1.843 1.434-3.584 2.765-5.53 4.096-1.536 1.126-3.174 2.048-4.71 3.174-1.843 1.229-3.686 2.355-5.632 3.482-1.638 1.024-3.379 1.843-5.12 2.765-1.946 1.024-3.891 2.048-5.837 2.97-1.741 0.819-3.482 1.638-5.325 2.355-2.048 0.922-4.198 1.638-6.246 2.458-1.741 0.614-3.584 1.331-5.427 1.946-0.717 0.205-1.331 0.512-2.048 0.717v296.243c0 8.704 7.066 15.77 15.77 15.77h576.717c8.704 0 15.77-7.066 15.77-15.77v-498.381zM858.522 808.653l-139.162-60.621-30.515 33.28c-10.957 11.981-29.491 12.698-41.472 1.741s-12.698-29.491-1.741-41.472l44.646-48.64c5.632-6.144 13.619-9.523 21.606-9.523 3.994 0 7.987 0.819 11.674 2.458l158.31 69.018c14.848 6.451 21.606 23.757 15.155 38.605-6.349 14.848-23.654 21.606-38.502 15.155zM858.522 604.16l-139.162-60.621-30.515 33.178c-10.957 11.981-29.491 12.698-41.472 1.741s-12.698-29.491-1.741-41.472l44.646-48.64c5.734-6.144 13.619-9.523 21.606-9.523 3.994 0 7.987 0.819 11.674 2.458l158.31 69.018c14.848 6.451 21.606 23.757 15.155 38.605s-23.654 21.709-38.502 15.258z" />
<glyph unicode="&#xe941;" glyph-name="Product-Team" d="M1023.078 756.531c0 1.843-0.205 3.686-0.614 5.427-0.102 0.614-0.307 1.126-0.41 1.741-0.307 1.229-0.717 2.458-1.126 3.584-0.205 0.614-0.512 1.229-0.717 1.843-0.512 1.229-1.229 2.355-1.843 3.482-0.205 0.41-0.512 0.819-0.717 1.229-1.024 1.434-2.15 2.765-3.379 4.096-0.307 0.307-0.614 0.614-1.024 0.922-1.024 0.922-2.048 1.741-3.174 2.56-0.512 0.41-1.024 0.717-1.536 1.024-1.024 0.614-2.048 1.229-3.174 1.741-0.614 0.307-1.126 0.512-1.741 0.819-0.307 0.102-0.512 0.205-0.717 0.307l-451.174 164.454c-24.781 13.005-54.682 13.005-79.462 0l-451.277-164.557c-0.307-0.102-0.512-0.205-0.717-0.307-0.614-0.205-1.229-0.512-1.741-0.819-1.126-0.614-2.15-1.126-3.174-1.741-0.512-0.307-1.024-0.614-1.536-1.024-1.126-0.819-2.15-1.638-3.174-2.56-0.307-0.307-0.717-0.614-1.024-0.922-1.229-1.229-2.355-2.662-3.379-4.096-0.307-0.41-0.512-0.819-0.717-1.229-0.717-1.126-1.331-2.253-1.843-3.482-0.307-0.614-0.512-1.229-0.717-1.843-0.41-1.126-0.819-2.355-1.126-3.584-0.102-0.614-0.307-1.126-0.41-1.741-0.307-1.741-0.512-3.584-0.614-5.427 0 0 0-0.102 0-0.102s0-0.102 0-0.102v-617.165c0-12.902 8.090-24.474 20.173-28.877l436.941-158.822c16.794-9.011 35.43-13.517 54.067-13.517s37.274 4.506 54.067 13.517l436.838 158.925c12.186 4.403 20.173 15.974 20.173 28.877v617.165c0 0 0 0.102 0 0.102s0 0.102 0 0.102zM495.411 892.826c1.638 0.614 3.174 1.331 4.71 2.15 7.27 4.198 16.384 4.198 23.654 0 1.536-0.819 3.072-1.536 4.71-2.15l376.013-137.114-392.499-149.811-392.499 149.811 375.91 137.114zM62.259 160.666v551.014l419.021-159.846v-543.642c0 0 0 0-0.102 0l-418.918 152.474zM542.72 8.294c0 0 0-0.102 0 0v543.539l418.918 159.846v-551.014l-418.918-152.371z" />
<glyph unicode="&#xe942;" glyph-name="Project-Management" d="M267.059-63.181h-235.52c-16.998 0-30.72 13.722-30.72 30.72v488.653c0 16.998 13.722 30.72 30.72 30.72h235.52c16.998 0 30.72-13.722 30.72-30.72v-488.653c0-16.998-13.722-30.72-30.72-30.72zM62.259-1.741h174.080v427.213h-174.080v-427.213zM629.76-63.181h-235.52c-16.998 0-30.72 13.722-30.72 30.72v724.378c0 16.998 13.722 30.72 30.72 30.72h235.52c16.998 0 30.72-13.722 30.72-30.72v-724.378c0-16.998-13.722-30.72-30.72-30.72zM424.96-1.741h174.080v662.938h-174.080v-662.938zM992.461-63.181h-235.52c-16.998 0-30.72 13.722-30.72 30.72v960.205c0 16.998 13.722 30.72 30.72 30.72h235.52c16.998 0 30.72-13.722 30.72-30.72v-960.205c0-16.998-13.722-30.72-30.72-30.72zM787.661-1.741h174.080v898.765h-174.080v-898.765z" />
<glyph unicode="&#xe943;" glyph-name="Repository" d="M887.501 80.486h-651.878c-43.11 0-78.131 35.021-78.131 78.131s35.021 78.131 78.131 78.131h651.878c16.998 0 30.72 13.722 30.72 30.72 0 1.843-0.205 3.686-0.512 5.427 0 0.307 0.102 0.512 0.102 0.819v572.416c0 16.998-13.722 30.72-30.72 30.72h-678.81c-62.157 0-112.742-50.586-112.742-112.742v-600.474c0-1.638 0.205-3.174 0.512-4.71 0-0.102 0-0.205 0-0.307 0-77.005 62.669-139.571 139.571-139.571h651.878c16.998 0 30.72 13.722 30.72 30.72s-13.722 30.72-30.72 30.72zM856.269 298.291h-536.986v517.222h536.986v-517.222zM208.282 815.514h49.562v-517.222h-22.221c-29.184 0-56.218-9.011-78.643-24.371v490.291c0 28.262 23.040 51.302 51.302 51.302zM525.005 633.651h145.306c16.998 0 30.72 13.722 30.72 30.72s-13.722 30.72-30.72 30.72h-145.306c-16.998 0-30.72-13.722-30.72-30.72s13.824-30.72 30.72-30.72z" />
<glyph unicode="&#xe944;" glyph-name="SOC" d="M993.28 361.472h-147.456v170.086h147.456c16.998 0 30.72 13.722 30.72 30.72s-13.722 30.72-30.72 30.72h-147.456v104.038c0 51.405-41.779 93.184-93.184 93.184h-94.106v137.83c0 16.998-13.722 30.72-30.72 30.72s-30.72-13.722-30.72-30.72v-137.83h-170.189v137.83c0 16.998-13.722 30.72-30.72 30.72s-30.72-13.722-30.72-30.72v-137.83h-94.515c-51.405 0-93.184-41.779-93.184-93.184v-103.834h-147.251c-16.998 0-30.72-13.722-30.72-30.72s13.722-30.72 30.72-30.72h147.251v-170.086h-147.251c-16.998 0-30.72-13.722-30.72-30.72s13.722-30.72 30.72-30.72h147.251v-97.382c0-51.405 41.779-93.184 93.184-93.184h94.31v-144.486c0-16.998 13.722-30.72 30.72-30.72s30.72 13.722 30.72 30.72v144.486h170.086v-144.486c0-16.998 13.722-30.72 30.72-30.72s30.72 13.722 30.72 30.72v144.486h94.31c51.405 0 93.184 41.779 93.184 93.184v97.178h147.558c16.998 0 30.72 13.722 30.72 30.72s-13.722 30.72-30.72 30.72zM784.384 202.854c0-17.51-14.234-31.744-31.744-31.744h-481.69c-17.51 0-31.744 14.234-31.744 31.744v494.182c0 17.51 14.234 31.744 31.744 31.744h481.69c17.51 0 31.744-14.234 31.744-31.744v-494.182z" />
<glyph unicode="&#xe945;" glyph-name="Standards" d="M43.11 575.283c0.512-0.307 0.922-0.512 1.434-0.819l425.267-218.624c13.107-7.475 27.648-11.162 42.189-11.162s29.184 3.686 42.189 11.162l425.165 218.624c0.512 0.205 0.922 0.512 1.434 0.819 26.522 15.462 42.291 43.008 42.291 73.626s-15.77 58.163-42.291 73.626c-0.512 0.307-0.922 0.512-1.434 0.819l-425.165 218.624c-26.112 14.848-58.266 14.848-84.48 0l-425.165-218.624c-0.512-0.205-0.922-0.512-1.434-0.819-26.419-15.462-42.291-43.008-42.291-73.626s15.872-58.163 42.291-73.626zM73.523 669.184l424.96 218.522c0.512 0.205 0.922 0.512 1.434 0.819 7.373 4.301 16.589 4.301 24.064 0 0.512-0.307 0.922-0.512 1.434-0.819l424.96-218.522c10.138-6.246 11.264-16.179 11.264-20.275 0-3.994-1.126-14.029-11.264-20.275l-424.858-218.522c-0.512-0.205-0.922-0.512-1.434-0.819-7.373-4.301-16.589-4.301-24.064 0-0.512 0.307-0.922 0.512-1.434 0.819l-425.062 218.624c-10.138 6.246-11.264 16.179-11.264 20.275 0 3.994 1.126 13.926 11.264 20.173zM43.11 374.477c0.512-0.307 0.922-0.512 1.434-0.819l425.165-218.624c13.107-7.475 27.648-11.162 42.189-11.162s29.184 3.686 42.189 11.162l425.165 218.624c0.512 0.205 0.922 0.512 1.434 0.819 26.522 15.462 42.291 43.008 42.291 73.626s-15.77 58.163-42.291 73.626c-14.643 8.602-33.485 3.584-41.984-11.059s-3.584-33.485 11.059-41.984c10.65-6.246 11.878-16.486 11.878-20.582s-1.126-14.029-11.264-20.275l-424.96-218.419c-0.512-0.205-0.922-0.512-1.434-0.819-7.373-4.301-16.589-4.301-24.064 0-0.512 0.307-0.922 0.512-1.434 0.819l-424.96 218.419c-10.138 6.246-11.264 16.179-11.264 20.275s1.126 14.336 11.878 20.582c14.643 8.602 19.558 27.341 11.059 41.984-8.602 14.643-27.341 19.661-41.984 11.059-26.522-15.462-42.291-43.008-42.291-73.626-0.102-30.618 15.77-58.163 42.189-73.626zM980.787 320.819c-14.643 8.499-33.485 3.584-41.984-11.059s-3.584-33.485 11.059-41.984c10.65-6.246 11.878-16.486 11.878-20.582 0-3.994-1.126-14.029-11.264-20.275l-424.96-218.419c-0.512-0.205-0.922-0.512-1.434-0.819-7.373-4.301-16.589-4.301-24.064 0-0.512 0.307-0.922 0.512-1.434 0.819l-424.96 218.522c-10.138 6.246-11.264 16.179-11.264 20.275s1.126 14.336 11.878 20.582c14.643 8.499 19.558 27.341 11.059 41.984-8.602 14.643-27.341 19.558-41.984 11.059-26.419-15.462-42.291-43.008-42.291-73.626 0-30.72 15.77-58.266 42.291-73.728 0.512-0.307 0.922-0.512 1.434-0.819l425.267-218.624c13.107-7.475 27.648-11.162 42.189-11.162s29.184 3.686 42.189 11.162l425.165 218.624c0.512 0.205 0.922 0.512 1.434 0.819 26.419 15.462 42.291 43.008 42.291 73.626s-15.974 58.163-42.496 73.626z" />
<glyph unicode="&#xe946;" glyph-name="System-Status-54" d="M512 958.771c-281.6 0-510.771-229.171-510.771-510.771s229.171-510.771 510.771-510.771c281.6 0 510.771 229.069 510.771 510.771s-229.171 510.771-510.771 510.771zM512 897.331c237.363 0 432.23-185.139 448.102-418.611h-264.397l-73.114 111.002c-6.451 9.83-18.022 15.155-29.696 13.517-11.674-1.536-21.402-9.626-25.19-20.787l-92.365-279.757-81.818 321.741c-3.072 11.981-13.005 20.992-25.19 22.835s-24.371-3.891-30.822-14.438l-93.901-154.112h-179.712c15.872 233.472 210.739 418.611 448.102 418.611zM512-1.331c-237.363 0-432.23 185.139-448.102 418.611h197.018c10.752 0 20.685 5.632 26.214 14.746l64.922 106.496 89.805-352.973c3.379-13.21 15.053-22.63 28.672-23.142 0.41 0 0.717 0 1.126 0 13.21 0 24.986 8.499 29.184 21.094l105.472 319.386 47.309-71.782c5.632-8.602 15.36-13.824 25.702-13.824h280.986c-16.077-233.472-210.944-418.611-448.307-418.611z" />
<glyph unicode="&#xe947;" glyph-name="System-Status" d="M512-62.771c-281.6 0-510.771 229.171-510.771 510.771s229.171 510.771 510.771 510.771 510.771-229.171 510.771-510.771-229.171-510.771-510.771-510.771zM512 897.331c-247.808 0-449.331-201.523-449.331-449.331s201.523-449.331 449.331-449.331 449.331 201.523 449.331 449.331-201.523 449.331-449.331 449.331zM471.552 162.406c-0.41 0-0.717 0-1.126 0-13.619 0.512-25.293 9.933-28.672 23.142l-89.702 352.973-64.922-106.598c-5.53-9.011-15.462-14.643-26.214-14.643h-228.966v61.44h211.661l93.901 154.214c6.451 10.547 18.534 16.282 30.822 14.438 12.186-1.843 22.118-10.854 25.19-22.835l81.818-321.843 92.467 279.757c3.686 11.162 13.414 19.251 25.19 20.787 11.674 1.536 23.245-3.686 29.696-13.619l73.011-110.899h296.346v-61.44h-312.934c-10.342 0-19.968 5.222-25.702 13.824l-47.206 71.782-105.472-319.386c-4.198-12.595-15.974-21.094-29.184-21.094z" />
<glyph unicode="&#xe948;" glyph-name="Team" d="M503.194 602.931c31.539-59.699 93.082-96.768 160.563-96.768 26.317 0 51.712 5.53 75.366 16.384 64.717 29.389 106.598 94.413 106.598 165.581 0 93.798-73.216 173.466-166.81 181.248-5.018 0.41-10.035 0.614-15.155 0.614-100.25 0-181.862-81.613-181.862-181.862 0-13.619 1.434-26.931 4.301-39.014 3.584-16.179 9.216-31.744 16.998-46.182zM663.757 809.267c3.482 0 6.861-0.102 10.138-0.41 62.259-5.222 111.104-58.266 111.104-120.73 0-47.411-27.853-90.726-71.066-110.387-15.77-7.168-32.666-10.854-50.176-10.854-44.954 0-85.914 24.678-107.008 64.512-5.12 9.626-8.909 19.866-11.366 30.925-1.843 8.090-2.867 16.794-2.867 25.805 0.102 66.867 54.477 121.139 121.242 121.139zM143.155 595.661c24.474-46.387 72.294-75.162 124.723-75.162 20.48 0 40.141 4.301 58.573 12.698 50.278 22.835 82.739 73.318 82.739 128.614 0 72.909-56.934 134.758-129.638 140.8-3.891 0.307-7.782 0.512-11.776 0.512-77.926 0-141.21-63.386-141.21-141.21 0-10.547 1.126-20.89 3.379-30.31 2.867-12.698 7.27-24.781 13.21-35.942zM267.981 742.4c2.355 0 4.608-0.102 6.758-0.307 41.37-3.482 73.83-38.707 73.83-80.282 0-31.539-18.534-60.314-47.309-73.421-10.445-4.813-21.606-7.168-33.382-7.168-29.901 0-57.139 16.384-71.168 42.906-3.379 6.349-5.939 13.107-7.475 20.582-1.229 5.325-1.843 11.059-1.843 16.998 0 44.544 36.147 80.691 80.589 80.691zM805.683 419.84c-50.79 25.293-105.267 38.093-161.894 38.093-67.584 0-132.915-18.534-190.362-53.76-20.173 20.89-43.52 38.605-68.608 51.814-36.557 19.354-75.878 29.082-116.838 29.082-111.411 0-213.094-77.005-253.030-191.59-11.981-34.099-18.022-70.246-18.022-107.622 0-17.715 14.336-32.051 32.051-32.051h246.682c-6.861-30.208-10.445-61.235-10.445-92.877 0-17.715 14.336-32.051 32.051-32.051h692.941c17.715 0 32.051 14.336 32.051 32.051 0.102 152.678-84.992 293.581-216.576 358.912zM75.469 272.282c31.437 90.317 107.008 148.582 192.512 148.582 30.413 0 59.597-7.27 86.835-21.709 16.589-8.806 32.256-20.173 46.285-33.485-2.867-2.458-5.53-5.12-8.294-7.68-2.253-2.048-4.506-4.096-6.758-6.246-4.198-4.096-8.192-8.294-12.186-12.595-1.536-1.638-3.072-3.174-4.608-4.813-5.427-6.042-10.752-12.186-15.77-18.534-0.717-0.922-1.434-1.946-2.253-2.97-4.198-5.427-8.397-10.854-12.288-16.486-1.536-2.15-2.97-4.506-4.506-6.656-3.072-4.506-6.042-9.011-8.806-13.619-1.638-2.662-3.174-5.325-4.71-7.987-2.56-4.301-5.018-8.704-7.373-13.107-1.536-2.867-2.97-5.837-4.506-8.704-2.15-4.301-4.301-8.704-6.349-13.107-1.434-3.072-2.765-6.144-4.096-9.216-0.922-2.048-1.843-4.096-2.765-6.144h-232.858c2.253 18.842 6.349 37.069 12.493 54.477zM330.854 92.979c2.56 28.365 8.499 56.115 17.92 83.046 0.614 1.843 1.126 3.584 2.15 6.144 20.070 54.374 53.555 102.4 96.87 138.957 6.144 5.222 12.39 10.138 18.842 14.643 52.224 37.888 113.562 57.856 177.254 57.856 46.694 0 91.546-10.547 133.325-31.334 100.762-49.971 168.858-153.498 179.61-269.414h-625.971z" />
<glyph unicode="&#xe949;" d="M512-23.040c260.301 0 471.245 210.842 471.245 471.040s-210.944 471.040-471.245 471.040c-260.301 0-471.245-210.842-471.245-471.040s210.944-471.040 471.245-471.040z" />
<glyph unicode="&#xe94a;" d="M416.768 176.742c230.195 0 356.045 190.566 356.045 355.942 0 5.427-0.102 10.854-0.307 16.179 24.474 17.613 45.67 39.731 62.464 64.717-22.426-9.933-46.592-16.691-71.885-19.661 25.805 15.462 45.67 39.936 54.989 69.12-24.166-14.336-50.995-24.781-79.462-30.31-22.835 24.269-55.398 39.526-91.341 39.526-69.12 0-125.235-56.013-125.235-125.030 0-9.83 1.126-19.354 3.277-28.57-104.038 5.222-196.301 54.989-257.946 130.662-10.752-18.534-16.998-39.936-16.998-62.874 0-43.418 22.016-81.715 55.706-104.141-20.48 0.614-39.834 6.246-56.73 15.667 0-0.512 0-1.024 0-1.638 0-60.621 43.11-111.206 100.454-122.573-10.547-2.867-21.606-4.403-32.973-4.403-7.987 0-15.872 0.717-23.552 2.253 15.872-49.664 62.157-85.811 116.838-86.835-42.906-33.587-96.768-53.555-155.443-53.555-10.138 0-20.070 0.512-29.901 1.741 55.603-35.533 121.446-56.218 192-56.218z" />
<glyph unicode="&#xe94b;" glyph-name="Visibility" d="M390.554 281.6c-79.667 0-151.245 47.411-182.374 120.832-6.554 15.667-24.576 22.938-40.243 16.282s-22.938-24.678-16.282-40.243c40.653-96.154 134.451-158.31 238.899-158.31 16.998 0 30.72 13.722 30.72 30.72s-13.824 30.72-30.72 30.72zM1009.357 84.070l-283.136 197.325c34.406 58.061 54.272 125.85 54.272 198.042 0 215.040-174.899 390.042-389.939 390.042s-390.042-174.899-390.042-390.042 174.899-390.042 390.042-390.042c120.73 0 228.864 55.194 300.442 141.619l283.238-197.427c5.325-3.686 11.469-5.53 17.51-5.53 9.728 0 19.251 4.608 25.19 13.107 9.728 14.029 6.349 33.178-7.578 42.906zM390.554 150.938c-181.146 0-328.602 147.354-328.602 328.602s147.354 328.602 328.602 328.602c181.146 0 328.499-147.354 328.499-328.602s-147.354-328.602-328.499-328.602z" />
<glyph unicode="&#xe94c;" glyph-name="Webinars" d="M856.678 957.133h-689.357c-91.136 0-165.376-74.138-165.376-165.376v-687.616c0-91.136 74.138-165.376 165.376-165.376h689.357c91.136 0 165.376 74.138 165.376 165.376v687.616c0 91.238-74.24 165.376-165.376 165.376zM960.614 104.243c0-57.242-46.592-103.936-103.936-103.936h-689.357c-57.242 0-103.936 46.592-103.936 103.936v687.514c0 57.242 46.592 103.936 103.936 103.936h689.357c57.242 0 103.936-46.592 103.936-103.936v-687.514zM694.17 474.624l-263.373 152.064c-9.523 5.53-21.197 5.53-30.72 0s-15.36-15.667-15.36-26.624v-304.128c0-10.957 5.837-21.094 15.36-26.624 4.71-2.765 10.035-4.096 15.36-4.096s10.65 1.331 15.36 4.096l263.373 152.064c9.523 5.53 15.36 15.667 15.36 26.624s-5.837 21.094-15.36 26.624zM446.157 349.082v197.837l171.213-98.918-171.213-98.918z" />
<glyph unicode="&#xe94d;" glyph-name="Workshops" d="M854.528 954.675h-685.056c-90.624 0-164.454-73.728-164.454-164.454v-503.808c0-90.726 73.83-164.557 164.557-164.557h311.706v-124.416h-95.539c-16.998 0-30.72-13.722-30.72-30.72s13.722-30.72 30.72-30.72h252.621c16.998 0 30.72 13.722 30.72 30.72s-13.722 30.72-30.72 30.72h-95.642v124.518h311.808c90.726 0 164.557 73.83 164.557 164.557v503.603c-0.102 90.726-73.83 164.557-164.557 164.557zM957.542 286.413c0-56.832-46.285-103.117-103.117-103.117h-684.954c-56.832 0-103.117 46.285-103.117 103.117v503.808c0 56.73 46.182 103.014 103.014 103.014h685.056c56.832 0 103.117-46.285 103.117-103.117v-503.706zM724.378 653.619l-160.87-166.81-137.421 121.651c-12.595 11.162-31.744 10.138-43.11-2.355l-128.205-141.107c-11.366-12.595-10.445-31.949 2.048-43.418 5.837-5.325 13.312-7.987 20.685-7.987 8.397 0 16.691 3.379 22.733 10.035l107.827 118.682 136.704-121.037c12.288-10.957 31.027-10.138 42.496 1.638l181.35 187.904c11.776 12.186 11.469 31.642-0.819 43.418-12.186 11.878-31.642 11.571-43.418-0.614z" />
<glyph unicode="&#xe94e;" d="M512-23.040c260.301 0 471.245 210.842 471.245 471.040s-210.944 471.040-471.245 471.040c-260.301 0-471.245-210.842-471.245-471.040s210.944-471.040 471.245-471.040z" />
<glyph unicode="&#xe94f;" d="M522.138 196.915c0 0.205 0 0.512 0 0.717 17.203 0.512 34.406 1.126 51.507 1.638 23.142 0.614 46.387 0.819 69.53 1.638 24.986 0.922 49.869 2.253 74.752 3.686 14.234 0.819 28.365 2.253 42.291 5.53 11.469 2.662 22.528 6.451 32.563 13.005 13.824 9.011 22.63 21.914 28.365 37.171 5.427 14.438 8.090 29.491 10.342 44.646 3.994 27.341 6.144 54.886 6.758 82.534 1.126 48.742 0.205 97.485-4.096 146.125-1.638 18.432-4.506 36.762-9.421 54.579-7.782 27.955-25.088 47.002-53.248 55.296-9.114 2.662-18.637 4.301-28.058 5.632-14.131 2.048-28.365 4.096-42.598 4.915-27.136 1.434-54.272 2.048-81.408 2.662-35.43 0.717-70.963 1.638-106.394 1.536-42.394-0.102-84.787-1.024-127.181-1.946-14.541-0.307-29.082-1.229-43.622-2.048-16.794-1.024-33.69-2.15-50.483-3.482-13.619-1.024-27.136-3.072-40.243-7.373-16.486-5.325-30.106-14.541-39.629-29.389-7.168-11.162-11.469-23.45-14.438-36.25-5.632-24.166-8.294-48.742-9.626-73.421-1.024-19.354-1.536-38.707-2.048-58.061-0.819-26.726-0.819-53.555 0.922-80.282 1.229-18.739 2.97-37.478 5.427-56.115 1.946-14.541 4.813-28.979 8.294-43.213 3.891-15.77 12.39-29.082 25.293-39.424 11.674-9.318 25.088-14.541 39.629-17.101 22.221-3.994 44.646-6.246 67.174-7.373 25.702-1.331 51.405-2.048 77.21-2.765 27.546-0.819 55.091-1.331 82.534-2.048 10.035-0.307 19.968-0.717 29.901-1.024z" />
<glyph unicode="&#xe950;" d="M522.138 196.915c-9.933 0.307-19.866 0.717-29.798 1.024-27.546 0.717-55.091 1.229-82.534 2.048-25.702 0.717-51.507 1.434-77.21 2.765-22.528 1.126-44.954 3.379-67.174 7.373-14.541 2.56-27.955 7.782-39.629 17.101-12.8 10.24-21.299 23.654-25.293 39.424-3.584 14.234-6.349 28.672-8.294 43.213-2.458 18.637-4.096 37.376-5.427 56.115-1.843 26.726-1.741 53.453-0.922 80.282 0.614 19.354 1.024 38.707 2.048 58.061 1.331 24.678 4.096 49.254 9.626 73.421 2.97 12.8 7.27 25.088 14.438 36.25 9.523 14.848 23.142 23.962 39.629 29.389 13.107 4.301 26.624 6.246 40.243 7.373 16.794 1.331 33.69 2.458 50.483 3.482 14.541 0.819 29.082 1.843 43.622 2.048 42.394 0.819 84.787 1.843 127.181 1.946 35.43 0.102 70.963-0.717 106.394-1.536 27.136-0.614 54.272-1.229 81.408-2.662 14.234-0.717 28.467-2.867 42.598-4.915 9.421-1.331 18.944-2.97 28.058-5.632 28.16-8.294 45.466-27.341 53.248-55.296 4.915-17.92 7.885-36.147 9.421-54.579 4.198-48.64 5.222-97.382 4.096-146.125-0.614-27.648-2.765-55.091-6.758-82.534-2.15-15.155-4.813-30.208-10.342-44.646-5.734-15.155-14.541-28.16-28.365-37.171-9.933-6.554-20.992-10.342-32.563-13.005-13.926-3.174-28.058-4.71-42.291-5.53-24.883-1.434-49.869-2.765-74.752-3.686-23.142-0.819-46.387-1.024-69.53-1.638-17.203-0.41-34.406-1.024-51.507-1.638-0.102-0.205-0.102-0.512-0.102-0.717z" />
<glyph unicode="&#xe951;" d="M445.338 526.438c57.651-32.768 114.995-65.331 172.851-98.202-57.856-32.87-115.098-65.536-172.851-98.406 0 65.741 0 130.97 0 196.608z" />
</font>
</defs>
</svg>
